<svg id="Слой_1" data-name="Слой 1" xmlns="http://www.w3.org/2000/svg" viewBox="0 0 111.23 51.54"><defs><style>.cls-1{fill:#fafaf8;stroke:#f7f6f3;stroke-miterlimit:10;}</style></defs><title>18</title><path class="cls-1" d="M33.67,56.34V61c-.05.48-.15.77-.29.87a1.4,1.4,0,0,1-.72.14H10.56a1.23,1.23,0,0,1-.87-.22A.94.94,0,0,1,9.55,61V56.34a1.13,1.13,0,0,1,.21-.79,1.16,1.16,0,0,1,.8-.22h7.27V24.81l-7.78,4.82a2.59,2.59,0,0,1-.57.32,1,1,0,0,1-.29,0,.93.93,0,0,1-.47-.11,2.43,2.43,0,0,1-.54-.83L6.31,25.81a.72.72,0,0,1-.25-.43,2.47,2.47,0,0,1,0-.5,1,1,0,0,1,.14-.47,2.8,2.8,0,0,1,.72-.68l13.61-9.8h5a1.87,1.87,0,0,1,1.08.26c.24.16.36.51.36,1v40.1h5.69a1.74,1.74,0,0,1,.72.22A1.16,1.16,0,0,1,33.67,56.34Z" transform="translate(-5.52 -12.21)"/><path class="cls-1" d="M66.72,36.54a16.65,16.65,0,0,1,7.41,5.26,12,12,0,0,1,2.59,7.49,12.78,12.78,0,0,1-4.57,9.9q-4.58,4.06-12.35,4.06T47.42,59.4A12.47,12.47,0,0,1,43,49.5a12.22,12.22,0,0,1,1.36-5.72,12.4,12.4,0,0,1,4-4.43A16.86,16.86,0,0,1,50.55,38c.94-.48,1.81-.89,2.63-1.22A11.94,11.94,0,0,1,51,35.64a18.12,18.12,0,0,1-2-1.4,10.67,10.67,0,0,1-3.24-3.93,11,11,0,0,1-1-4.64,11.53,11.53,0,0,1,4.35-9.25,16.53,16.53,0,0,1,10.77-3.71q6.76.07,10.87,3.85a11.52,11.52,0,0,1,4.1,8.68,11.84,11.84,0,0,1-1.15,4.89,11.21,11.21,0,0,1-3,3.82,13.32,13.32,0,0,1-1.88,1.4A21.74,21.74,0,0,1,66.72,36.54Zm-7.35,3.6A13.55,13.55,0,0,0,54,44a7.85,7.85,0,0,0-1.94,5,6,6,0,0,0,2,4.82,8.18,8.18,0,0,0,5.72,1.87,8,8,0,0,0,5.69-1.94,6.19,6.19,0,0,0,2.09-4.68A7.2,7.2,0,0,0,65.24,44,17.21,17.21,0,0,0,59.37,40.14Zm.79-6.84a10.45,10.45,0,0,0,4.29-2.95,6.56,6.56,0,0,0,1.26-4.1A6.26,6.26,0,0,0,64,22a5.53,5.53,0,0,0-4.22-1.73A6,6,0,0,0,55.59,22a5.57,5.57,0,0,0-1.69,4.17,6.21,6.21,0,0,0,1.73,4.18A10.74,10.74,0,0,0,60.16,33.3Z" transform="translate(-5.52 -12.21)"/><path class="cls-1" d="M103.51,47.13V58.65a1.81,1.81,0,0,1-.18,1c-.12.17-.47.25-1,.25H97.53a2.31,2.31,0,0,1-1-.14c-.17-.1-.25-.46-.25-1.08V47.13H84.79a1.58,1.58,0,0,1-1-.11c-.17-.12-.26-.49-.26-1.12V41.15a1.89,1.89,0,0,1,.18-.9c.12-.22.47-.32,1.05-.32H96.31V28.41a1.33,1.33,0,0,1,.11-.9q.18-.26,1.11-.33h4.75c.58,0,.93.1,1,.29a1.83,1.83,0,0,1,.18.94V39.93H115c.57,0,.91.15,1,.32a2.81,2.81,0,0,1,.21.9V45.9c0,.63-.15,1-.32,1.08a1.91,1.91,0,0,1-.9.15Z" transform="translate(-5.52 -12.21)"/></svg>