<?xml version="1.0" encoding="UTF-8" standalone="no"?>
<svg width="75px" height="62px" viewBox="0 0 75 62" version="1.1" xmlns="http://www.w3.org/2000/svg" xmlns:xlink="http://www.w3.org/1999/xlink">
    <!-- Generator: Sketch 41.1 (35376) - http://www.bohemiancoding.com/sketch -->
    <title>Group 26</title>
    <desc>Created with Sketch.</desc>
    <defs></defs>
    <g id="Page-1" stroke="none" stroke-width="1" fill="none" fill-rule="evenodd">
        <g id="page-1" transform="translate(-290.000000, -891.000000)">
            <g id="Group-34-Copy" transform="translate(160.000000, 793.000000)">
                <g id="Group-32">
                    <g id="Group-26" transform="translate(130.000000, 98.000000)">
                        <g id="jar-of-beer" transform="translate(20.000000, 0.000000)">
                            <g id="Capa_1">
                                <g id="Group">
                                    <path d="M44.8692767,24.7900111 L42.2161321,24.7900111 C42.0743082,24.7900111 41.9317925,24.7934556 41.7885849,24.7996556 L41.7885849,20.1396667 C41.7885849,19.9884556 41.7820126,19.8362111 41.7702516,19.6836222 C43.5613836,18.1226 44.5749057,15.9205667 44.5749057,13.5421778 C44.5749057,11.0838778 43.4679874,8.76783333 41.5381447,7.18786667 C39.8051258,5.76944444 37.6023585,5.12808889 35.4113522,5.38538889 C33.8966038,4.01174444 31.9529245,3.22847778 29.9296855,3.17681111 C28.3128931,1.17696667 25.8783648,0 23.2985535,0 C21.2791195,0 19.367956,0.692333333 17.8407547,1.96333333 C16.1277987,1.48868889 14.0945283,1.53725556 13.3681132,1.62612222 C10.0978616,2.00707778 7.35443396,3.84021111 6.03823899,6.49243333 C2.67632075,7.40727778 0.296446541,10.4638778 0.296446541,13.9837556 C0.296446541,16.2791333 1.3286478,18.4525778 3.08933962,19.9271444 C3.08553459,19.9956889 3.08345912,20.0666444 3.08345912,20.1393222 L3.08345912,55.8261778 C3.08345912,59.0922 5.75009434,61.7495889 9.02795597,61.7495889 L35.844434,61.7495889 C39.1226415,61.7495889 41.7892767,59.0922 41.7892767,55.8261778 L41.7892767,50.0243556 C41.9397484,50.0154 42.0826101,50.0074778 42.2168239,50.0074778 C42.2396541,50.0074778 42.2628302,50.0067889 42.2853145,50.0054111 L44.9049057,49.8521333 C50.3630503,49.8331889 54.7976415,45.4046667 54.7976415,39.9634778 L54.7976415,34.6803889 C54.7972956,29.2271444 50.3436792,24.7900111 44.8692767,24.7900111 Z" id="Shape" fill="#000000"></path>
                                    <path d="M52.4623899,39.9634778 C52.4623899,44.1343556 49.056195,47.5278222 44.8696226,47.5278222 C44.8467925,47.5278222 41.1327358,47.6790333 40.8369811,47.7048667 C40.4910692,47.7351778 40.1430818,47.7317333 39.8763836,47.9525222 C39.6089937,48.1736556 39.4540252,48.5015667 39.4540252,48.8473889 L39.4540252,55.8268667 C39.4540252,57.8112111 37.8351572,59.4249333 35.844434,59.4249333 L9.02795597,59.4249333 C7.03757862,59.4249333 5.41836478,57.8108667 5.41836478,55.8268667 L5.41836478,20.5695333 L10.8062893,20.5695333 C10.8017925,21.2053778 10.7938365,21.6528111 10.7851887,22.1171222 C10.7699686,22.9592889 10.752673,23.9134 10.752673,26.1898333 C10.752673,31.4154 12.3296855,34.5353778 14.9707233,34.5353778 C16.5380503,34.5353778 17.5972327,33.8223778 18.208805,32.3550444 C18.7435849,31.0713 18.9819182,29.0614667 18.9819182,25.8367778 C18.9819182,25.3824556 18.9760377,24.9281333 18.9705031,24.4834556 C18.9532075,23.1359889 18.9272642,21.1361444 19.222673,20.5702222 L29.6539937,20.5702222 C30.2991195,20.5702222 30.8214465,20.0497667 30.8214465,19.4077222 C30.8214465,18.7656778 30.2991195,18.2452222 29.6539937,18.2452222 L19.104717,18.2452222 C18.5253145,18.2452222 18.0078302,18.4580889 17.6086478,18.8610889 C16.5761006,19.9026889 16.6023899,21.9373222 16.6355975,24.5134222 C16.6411321,24.9484556 16.6470126,25.3924444 16.6470126,25.8367778 C16.6470126,28.6626 16.4522642,30.5033111 16.052044,31.4636222 C15.7877673,32.0980889 15.5390566,32.2103778 14.9703774,32.2103778 C14.044717,32.2103778 13.0872327,29.9584 13.0872327,26.1898333 C13.0872327,23.9347556 13.1041824,22.9913222 13.1190566,22.1591444 C13.1318553,21.4440778 13.1443082,20.7693111 13.1443082,19.4070333 C13.1443082,18.7649889 12.6216352,18.2445333 11.9768553,18.2445333 L4.71132075,18.2445333 C3.40308176,17.2087889 2.63169811,15.6412222 2.63169811,13.9844444 C2.63169811,11.3711444 4.50377358,9.12261111 7.08323899,8.63728889 C7.47515723,8.56357778 7.80204403,8.29594444 7.95044025,7.92738889 C8.82213836,5.76014444 11.11,4.18741111 13.7790566,3.92081111 C15.7780818,3.70725556 17.3706604,4.24837778 17.6719497,4.36962222 C18.1060692,4.54425556 18.601761,4.44402222 18.9334906,4.11576667 C20.0981761,2.96118889 21.6485535,2.32534444 23.2992453,2.32534444 C25.3231761,2.32534444 27.2260377,3.32767778 28.3896855,5.00615556 C28.6193711,5.33785556 29.004717,5.5304 29.409434,5.50697778 C31.1863836,5.41742222 32.9197484,6.11664444 34.1681447,7.42484444 C34.4434906,7.71348889 34.8478616,7.84093333 35.2408176,7.76481111 C36.9454717,7.42966667 38.7006289,7.87468889 40.0566038,8.98448889 C41.4444025,10.1211556 42.2406918,11.7824111 42.2406918,13.5428667 C42.2406918,15.4039 41.367956,17.1164778 39.8462893,18.2448778 L37.0115409,18.2448778 C36.3671069,18.2448778 35.8440881,18.7653333 35.8440881,19.4073778 C35.8440881,20.0494222 36.3671069,20.5698778 37.0115409,20.5698778 L39.4543711,20.5698778 L39.4543711,25.4816556 C39.4543711,26.2793889 39.6819811,27.1349889 41.3752201,27.1349889 C41.7304717,27.1349889 44.8696226,27.1153556 44.8696226,27.1153556 C49.0565409,27.1153556 52.4627358,30.5095111 52.4627358,34.6810778 L52.4623899,39.9634778 L52.4623899,39.9634778 Z" id="Path" fill="#FFFFFF"></path>
                                    <path d="M44.8692767,29.5554 L41.5934906,29.5554 C40.3039308,29.5554 39.4533333,30.1347556 39.4533333,31.0520111 L39.4533333,43.5928889 C39.4533333,44.2352778 39.9760063,44.7553889 40.6207862,44.7553889 C41.2652201,44.7553889 41.788239,44.2352778 41.788239,43.5928889 L41.788239,31.9120889 C41.9286792,31.8910778 44.8689308,31.8797111 44.8689308,31.8797111 C46.42,31.8797111 47.6822327,33.1362444 47.6822327,34.6810778 L47.6822327,39.9634778 C47.6822327,40.6234333 47.4477044,41.2644444 47.0208491,41.7690556 C46.6064465,42.2605778 46.6700943,42.9942444 47.1633648,43.4072333 C47.657327,43.8202222 48.3937736,43.7568444 48.808522,43.2653222 C49.5878616,42.3422111 50.0171384,41.1697222 50.0171384,39.9634778 L50.0171384,34.6810778 C50.0174843,31.8549111 47.7081761,29.5554 44.8692767,29.5554 Z" id="Shape" fill="#000000"></path>
                                </g>
                            </g>
                        </g>
                        <g id="big-speech-balloon" transform="translate(0.000000, 14.000000)">
                            <g id="Capa_1">
                                <g id="Group">
                                    <path d="M29.8081579,0 L4.19189803,0 C1.89790461,0 0.0315394737,1.85416667 0.0315394737,4.13327778 L0.0315394737,20.8272222 C0.0315394737,23.1062778 1.89790461,24.9605 4.19200987,24.9605 L18.2205329,24.9605 L25,32 C25,32 26.8812237,34 27,34 C27.2889441,34 27.8032697,33.2256111 28,33 L28,24.9605 L29.8080461,24.9605 C32.1020954,24.9605 33.9684605,23.1063333 33.9684605,20.8272222 L33.9684605,4.13327778 C33.9685724,1.85416667 32.1022072,0 29.8081579,0 Z" id="Shape" fill="#000000"></path>
                                    <path d="M29.8081579,22.9433333 C29.8081579,22.9433333 27.1814342,22.944 27.166,22.9433333 C26.8659276,22.9293889 26.5625,23.0483889 26.3505033,23.2915556 L26.3505033,30 L20.2511382,23.9520556 C20.2511382,24 19.7965559,22.9434444 19.2358914,22.9434444 L4.19189803,22.9434444 C3.01744408,22.9434444 2.06192105,21.9941111 2.06192105,20.8273889 L2.06192105,4.13327778 C2.06203289,2.96655556 3.01744408,2.01722222 4.19189803,2.01722222 L29.8080461,2.01722222 C30.9825,2.01722222 31.9379671,2.96655556 31.9379671,4.13327778 L31.9379671,20.8272222 C31.9380789,21.994 30.9826678,22.9433333 29.8081579,22.9433333 Z" id="Path" fill="#FFFFFF"></path>
                                    <path d="M27.3681908,6.65283333 L4.63197697,6.65283333 C4.0713125,6.65283333 3.61673026,7.10444444 3.61673026,7.66144444 C3.61673026,8.21844444 4.0713125,8.67005556 4.63197697,8.67005556 L27.3681908,8.67005556 C27.9288553,8.67005556 28.3834375,8.21844444 28.3834375,7.66144444 C28.3834375,7.10444444 27.9289671,6.65283333 27.3681908,6.65283333 Z" id="Shape" fill="#000000"></path>
                                    <path d="M27.3681908,11.4716111 L4.63197697,11.4716111 C4.0713125,11.4716111 3.61673026,11.9232222 3.61673026,12.4802222 C3.61673026,13.0372222 4.0713125,13.4888333 4.63197697,13.4888333 L27.3681908,13.4888333 C27.9288553,13.4888333 28.3834375,13.0372222 28.3834375,12.4802222 C28.3834375,11.9232222 27.9289671,11.4716111 27.3681908,11.4716111 Z" id="Shape" fill="#000000"></path>
                                    <path d="M15.3937599,16.2902778 L4.63197697,16.2902778 C4.0713125,16.2902778 3.61673026,16.7418889 3.61673026,17.2988889 C3.61673026,17.8558889 4.0713125,18.3075 4.63197697,18.3075 L15.3938717,18.3075 C15.9545362,18.3075 16.4091184,17.8558889 16.4091184,17.2988889 C16.4090066,16.7419444 15.9545362,16.2902778 15.3937599,16.2902778 Z" id="Shape" fill="#000000"></path>
                                </g>
                            </g>
                        </g>
                    </g>
                </g>
            </g>
        </g>
    </g>
</svg>