<?xml version="1.0" encoding="UTF-8" standalone="no"?>
<svg width="26px" height="29px" viewBox="0 0 26 29" version="1.1" xmlns="http://www.w3.org/2000/svg" xmlns:xlink="http://www.w3.org/1999/xlink">
    <!-- Generator: Sketch 41.1 (35376) - http://www.bohemiancoding.com/sketch -->
    <title>beer-mug</title>
    <desc>Created with Sketch.</desc>
    <defs></defs>
    <g id="Symbols" stroke="none" stroke-width="1" fill="none" fill-rule="evenodd">
        <g id="menu" transform="translate(-248.000000, -84.000000)" fill="#EFD8AB">
            <g id="beer-mug" transform="translate(248.000000, 84.000000)">
                <g id="Capa_1">
                    <path d="M23.3103448,10.875 L20.6206897,10.875 L20.6206897,9.9415625 C21.1765517,9.18575 21.5172414,8.261375 21.5172414,7.25 C21.5172414,4.752375 19.5053793,2.71875 17.0344828,2.71875 C16.3297931,2.71875 15.6502069,2.8836875 15.0423448,3.1918125 C14.4757241,1.344875 12.7704828,0 10.7586207,0 C8.74675862,0 7.04151724,1.344875 6.47489655,3.1918125 C5.86703448,2.8836875 5.18744828,2.71875 4.48275862,2.71875 C2.01186207,2.71875 0,4.752375 0,7.25 C0,8.261375 0.340689655,9.18575 0.896551724,9.9415625 L0.896551724,25.375 C0.896551724,27.3741875 2.50496552,29 4.48275862,29 L17.0344828,29 C19.0122759,29 20.6206897,27.3741875 20.6206897,25.375 L20.6206897,23.5625 L23.3103448,23.5625 C24.7932414,23.5625 26,22.3426875 26,20.84375 L26,13.59375 C26,12.0948125 24.7932414,10.875 23.3103448,10.875 Z M18.8275862,25.375 C18.8275862,26.3736875 18.0224828,27.1875 17.0344828,27.1875 L4.48275862,27.1875 C3.49475862,27.1875 2.68965517,26.3736875 2.68965517,25.375 L2.68965517,11.397 C3.24013793,11.6416875 3.84441379,11.78125 4.48275862,11.78125 L4.48275862,13.59375 C4.48275862,14.7736875 5.23406897,15.7705625 6.27586207,16.14575 L6.27586207,22.65625 C6.27586207,23.1565 6.67751724,23.5625 7.17241379,23.5625 C7.66731034,23.5625 8.06896552,23.1565 8.06896552,22.65625 L8.06896552,16.14575 C9.11075862,15.7705625 9.86206897,14.7736875 9.86206897,13.59375 L9.86206897,12.306875 C11.5404138,13.05725 13.6598621,12.618625 14.9311724,11.252 C15.5677241,11.6 16.2813793,11.78125 17.0344828,11.78125 C17.6728276,11.78125 18.2771034,11.6416875 18.8275862,11.397 L18.8275862,25.375 Z M17.0344828,9.96875 C16.3925517,9.96875 15.8008276,9.7494375 15.3238621,9.334375 C15.1266207,9.1621875 14.8612414,9.0896875 14.6030345,9.1259375 C14.3448276,9.167625 14.1171034,9.319875 13.9772414,9.544625 C13.0537931,11.049 10.7532414,11.2465625 9.64689655,9.9415625 C9.40124138,9.6515625 9.00675862,9.54825 8.65531034,9.6805625 C8.30206897,9.812875 8.06896552,10.1518125 8.06896552,10.530625 L8.06896552,13.59375 C8.06896552,14.094 7.66731034,14.5 7.17241379,14.5 C6.67751724,14.5 6.27586207,14.094 6.27586207,13.59375 L6.27586207,10.748125 C6.27586207,10.4599375 6.13958621,10.1880625 5.91006897,10.0176875 C5.75406897,9.9016875 5.56758621,9.841875 5.37931034,9.841875 C5.28965517,9.841875 5.2,9.8545625 5.11393103,9.88175 C4.93103448,9.93975 4.71944828,9.96875 4.48275862,9.96875 C2.99986207,9.96875 1.79310345,8.7489375 1.79310345,7.25 C1.79310345,5.7510625 2.99986207,4.53125 4.48275862,4.53125 C5.26993103,4.53125 6.00510345,4.875625 6.5017931,5.4755625 C6.76,5.789125 7.19034483,5.887 7.55972414,5.716625 C7.92731034,5.5480625 8.13889655,5.151125 8.07434483,4.74875 C8.06537931,4.6835 8.06896552,4.607375 8.06896552,4.53125 C8.06896552,3.0323125 9.27572414,1.8125 10.7586207,1.8125 C12.2415172,1.8125 13.4482759,3.0323125 13.4482759,4.53125 C13.4482759,4.607375 13.4518621,4.6835 13.4428966,4.74875 C13.3783448,5.151125 13.589931,5.5480625 13.9557241,5.716625 C14.3268966,5.8888125 14.7572414,5.789125 15.0136552,5.4755625 C15.5121379,4.875625 16.2473103,4.53125 17.0344828,4.53125 C18.5173793,4.53125 19.7241379,5.7510625 19.7241379,7.25 C19.7241379,8.7489375 18.5173793,9.96875 17.0344828,9.96875 Z M24.2068966,20.84375 C24.2068966,21.344 23.8052414,21.75 23.3103448,21.75 L20.6206897,21.75 L20.6206897,12.6875 L23.3103448,12.6875 C23.8052414,12.6875 24.2068966,13.0935 24.2068966,13.59375 L24.2068966,20.84375 Z" id="Shape"></path>
                    <path d="M14.3448276,14.5 C13.849931,14.5 13.4482759,14.906 13.4482759,15.40625 L13.4482759,22.65625 C13.4482759,23.1565 13.849931,23.5625 14.3448276,23.5625 C14.8397241,23.5625 15.2413793,23.1565 15.2413793,22.65625 L15.2413793,15.40625 C15.2413793,14.906 14.8397241,14.5 14.3448276,14.5 Z" id="Shape"></path>
                </g>
            </g>
        </g>
    </g>
</svg>