<?xml version="1.0" encoding="UTF-8" standalone="no"?>
<svg width="20px" height="28px" viewBox="0 0 20 28" version="1.1" xmlns="http://www.w3.org/2000/svg" xmlns:xlink="http://www.w3.org/1999/xlink">
    <!-- Generator: Sketch 41.1 (35376) - http://www.bohemiancoding.com/sketch -->
    <title>bottle</title>
    <desc>Created with Sketch.</desc>
    <defs></defs>
    <g id="Symbols" stroke="none" stroke-width="1" fill="none" fill-rule="evenodd">
        <g id="menu" transform="translate(-781.000000, -84.000000)" fill="#EFD8AB">
            <g id="bottle" transform="translate(781.000000, 84.000000)">
                <g id="Capa_1">
                    <g id="Group">
                        <path d="M11.4222222,17.2666484 C11.1600556,17.2666484 10.9481667,17.4757187 10.9481667,17.7332969 C10.9481667,18.2480156 10.5229444,18.6666484 10,18.6666484 C9.47711111,18.6666484 9.05183333,18.2480703 9.05183333,17.7332969 C9.05183333,17.2185781 9.47705556,16.7999453 10,16.7999453 C10.2621667,16.7999453 10.4740556,16.590875 10.4740556,16.3332969 C10.4740556,16.0757187 10.2621667,15.8666484 10,15.8666484 C8.95416667,15.8666484 8.10372222,16.7038594 8.10372222,17.7332969 C8.10372222,18.7627891 8.95422222,19.5999453 10,19.5999453 C11.0457778,19.5999453 11.8962778,18.7627344 11.8962778,17.7332969 C11.8962778,17.4757187 11.6843889,17.2666484 11.4222222,17.2666484 Z" id="Shape"></path>
                        <path d="M18.1981667,10.9914219 L17.5851667,10.5089141 L17.5851667,5.6 L18.0592222,5.6 C18.3213889,5.6 18.5332778,5.39092969 18.5332778,5.13335156 L18.5332778,4.63914063 C18.5332778,3.62507031 17.6946667,2.8 16.6649444,2.8 L14.7127222,2.8 C13.6830556,2.8 12.8443889,3.62507031 12.8443889,4.63914063 L12.8443889,5.13335156 C12.8443889,5.39092969 13.0562778,5.6 13.3184444,5.6 L13.7925,5.6 L13.7925,9.76554688 C13.4931111,9.16289062 13.0589444,8.62482031 12.5091667,8.19185937 L11.8961667,7.70935156 L11.8961667,2.8 L12.3702222,2.8 C12.6323889,2.8 12.8442778,2.59092969 12.8442778,2.33335156 L12.8442778,1.83914063 C12.8444444,0.825070313 12.0058333,0 10.9761111,0 L9.02388889,0 C7.99422222,0 7.15555556,0.825070313 7.15555556,1.83914063 L7.15555556,2.33335156 C7.15555556,2.59092969 7.36744444,2.8 7.62961111,2.8 L8.10366667,2.8 L8.10366667,7.70935156 L7.49066667,8.19185938 C6.94088889,8.62476563 6.50677778,9.16289063 6.20733333,9.76554688 L6.20733333,5.6 L6.68138889,5.6 C6.94355556,5.6 7.15544444,5.39092969 7.15544444,5.13335156 L7.15544444,4.63914063 C7.15544444,3.62507031 6.31683333,2.8 5.28711111,2.8 L3.33488889,2.8 C2.30522222,2.8 1.46655556,3.62507031 1.46655556,4.63914063 L1.46655556,5.13335156 C1.46655556,5.39092969 1.67844444,5.6 1.94061111,5.6 L2.41466667,5.6 L2.41466667,10.5093516 L1.80166667,10.9918594 C0.685388889,11.8710703 0.0444444444,13.1828594 0.0444444444,14.5907891 L0.0444444444,16.8 L0.0444444444,21.4666484 L0.0444444444,27.5332969 C0.0444444444,27.790875 0.256333333,27.9999453 0.5185,27.9999453 L6.20738889,27.9999453 L13.7925556,27.9999453 L19.4814444,27.9999453 C19.7436111,27.9999453 19.9555,27.790875 19.9555,27.5332969 L19.9555,21.4666484 L19.9555,16.8 L19.9555,14.5907891 C19.9555556,13.1833516 19.3150556,11.8710703 18.1981667,10.9914219 Z M13.7926111,4.63914062 C13.7926111,4.13978906 14.2055556,3.73335156 14.7127778,3.73335156 L16.665,3.73335156 C17.1722778,3.73335156 17.5851667,4.13984375 17.5851667,4.63914062 L17.5851667,4.66664844 L17.1111111,4.66664844 L14.2666667,4.66664844 L13.7926111,4.66664844 L13.7926111,4.63914062 Z M14.7407222,10.0641406 L14.7407222,5.6 L16.637,5.6 L16.637,10.7333516 C16.637,10.8752109 16.7024444,11.0091406 16.8152222,11.0978438 L17.606,11.7203516 C18.4967778,12.4217734 19.0073889,13.468 19.0073889,14.5908438 L19.0073889,16.3333516 L14.2666667,16.3333516 L14.2666667,14.4667031 L14.2666667,11.7912813 C14.2666667,11.6335078 14.2581667,11.4769922 14.2423333,11.3221172 C14.5614444,10.9815234 14.7407222,10.5365859 14.7407222,10.0641406 Z M19.0073889,21 L14.2666667,21 L14.2666667,17.2666484 L19.0073889,17.2666484 L19.0073889,21 L19.0073889,21 Z M0.992611111,17.2666484 L5.73333333,17.2666484 L5.73333333,21 L0.992611111,21 L0.992611111,17.2666484 Z M6.6815,16.8 L6.6815,14.9333516 L13.3185556,14.9333516 L13.3185556,16.8 L13.3185556,20.5333516 L6.6815,20.5333516 L6.6815,16.8 Z M8.10372222,1.83914063 C8.10372222,1.33978906 8.51666667,0.933351563 9.02388889,0.933351563 L10.9761111,0.933351563 C11.4833889,0.933351563 11.8962778,1.33984375 11.8962778,1.83914063 L11.8962778,1.86664844 L11.4222222,1.86664844 L8.57777778,1.86664844 L8.10372222,1.86664844 L8.10372222,1.83914063 L8.10372222,1.83914063 Z M8.08333333,8.92035156 L8.87411111,8.29784375 C8.98644444,8.20919531 9.05188889,8.07526563 9.05188889,7.93335156 L9.05188889,2.8 L10.9481667,2.8 L10.9481667,7.93335156 C10.9481667,8.07521094 11.0136111,8.20914063 11.1259444,8.29784375 L11.9167222,8.92035156 C12.6364444,9.48740625 13.1078889,10.2791172 13.2625556,11.1546641 C13.2628333,11.1980859 13.2691667,11.2416172 13.2819444,11.2838906 C13.3052778,11.4506875 13.3185556,11.6199453 13.3185556,11.7912813 L13.3185556,14 L6.6815,14 L6.6815,11.7912813 C6.6815,11.6198906 6.69483333,11.4506875 6.71811111,11.2838906 C6.73083333,11.2416172 6.73716667,11.1980859 6.7375,11.1546641 C6.89216667,10.2790625 7.36361111,9.48740625 8.08333333,8.92035156 Z M2.41483333,4.63914062 C2.41483333,4.13978906 2.82772222,3.73335156 3.335,3.73335156 L5.28722222,3.73335156 C5.7945,3.73335156 6.20738889,4.13984375 6.20738889,4.63914062 L6.20738889,4.66664844 L5.73333333,4.66664844 L2.88888889,4.66664844 L2.41483333,4.66664844 L2.41483333,4.63914062 Z M2.39444444,11.7203516 L3.18522222,11.0978438 C3.29755556,11.0091953 3.363,10.8752656 3.363,10.7333516 L3.363,5.6 L5.25927778,5.6 L5.25927778,10.0641406 C5.25927778,10.5365859 5.43861111,10.9815234 5.75772222,11.3221172 C5.74183333,11.4770469 5.73338889,11.6335078 5.73338889,11.7912813 L5.73338889,14.4667031 L5.73338889,16.3333516 L0.992611111,16.3333516 L0.992611111,14.5908438 C0.992611111,13.468 1.50366667,12.4217188 2.39444444,11.7203516 Z M0.992611111,21.9333516 L5.73333333,21.9333516 L5.73333333,27.0667031 L0.992611111,27.0667031 L0.992611111,21.9333516 Z M6.6815,21.4666484 L13.3185556,21.4666484 L13.3185556,27.0666484 L6.6815,27.0666484 L6.6815,21.4666484 Z M14.2666667,27.0666484 L14.2666667,21.9332969 L19.0073889,21.9332969 L19.0073889,27.0666484 L14.2666667,27.0666484 Z" id="Shape"></path>
                    </g>
                </g>
            </g>
        </g>
    </g>
</svg>