<?xml version="1.0" encoding="UTF-8"?>
<!DOCTYPE svg  PUBLIC '-//W3C//DTD SVG 1.1//EN'  'http://www.w3.org/Graphics/SVG/1.1/DTD/svg11.dtd'>
<svg width="512px" height="512px" enable-background="new 0 0 484.738 484.738" version="1.1" viewBox="0 0 484.738 484.738" xml:space="preserve" xmlns="http://www.w3.org/2000/svg">
	<g fill="#1c1c1a">
		<path d="m131.01 438.37h85.624v-87.557h51.467v87.557h85.624v-392.01h-222.72v392.01zm126.98-345.81h51.466v51.467h-51.466v-51.467zm0 82.715h51.466v51.467h-51.466v-51.467zm0 82.713h51.466v51.467h-51.466v-51.467zm-82.714-165.43h51.466v51.467h-51.466v-51.467zm0 82.715h51.466v51.467h-51.466v-51.467zm0 82.713h51.466v51.467h-51.466v-51.467z"/>
		<path d="m373.72 81.482v277.18h33.065v79.712h77.954v-356.89h-111.02zm70.718 239.53h-46.857v-46.856h46.856v46.856zm0-75.306h-46.857v-46.855h46.856v46.855zm0-75.305h-46.857v-46.855h46.856v46.855z"/>
		<path d="m0 438.37h77.954v-79.712h33.065v-277.18h-111.02v356.89zm40.302-314.83h46.856v46.855h-46.856v-46.855zm0 75.305h46.856v46.855h-46.856v-46.855zm0 75.303h46.856v46.855h-46.856v-46.855z"/>
	</g>
</svg>
