<?xml version="1.0" encoding="UTF-8" standalone="no"?>
<svg width="21px" height="28px" viewBox="0 0 21 28" version="1.1" xmlns="http://www.w3.org/2000/svg" xmlns:xlink="http://www.w3.org/1999/xlink">
    <!-- Generator: Sketch 41.1 (35376) - http://www.bohemiancoding.com/sketch -->
    <title>corkscrew 1</title>
    <desc>Created with Sketch.</desc>
    <defs></defs>
    <g id="Symbols" stroke="none" stroke-width="1" fill="none" fill-rule="evenodd">
        <g id="menu-copy" transform="translate(-396.000000, -84.000000)">
            <g id="corkscrew-1" transform="translate(396.000000, 84.000000)">
                <g id="Layer_1">
                    <path d="M12.6977073,21 C12.3181601,21 12.0651649,21.3181719 12.0651649,21.6363438 C12.0651649,21.7 12.0018889,21.7636016 11.9386673,21.8272578 L8.08002808,22.7818281 C7.44748566,22.9727422 7.00466249,23.5454844 7.00466249,24.1818281 C7.00466249,24.8818281 7.4474313,25.4545703 8.08002808,25.5818281 L8.20652569,25.6454844 C9.0288417,25.8363984 9.5348865,26.5363984 9.5348865,27.3636562 C9.5348865,27.7454844 9.78793608,28 10.1674289,28 C10.4837001,28 10.7999713,27.7454297 10.7999713,27.3636562 C10.7999713,25.9636562 9.85110335,24.6909141 8.52274253,24.3727422 L8.39624492,24.3090859 C8.33296894,24.3090859 8.26974731,24.2454297 8.26974731,24.1181719 C8.26974731,23.9909141 8.3330233,23.9909141 8.39624492,23.9272578 L12.2548841,22.9726875 C12.8874265,22.7817734 13.3302497,22.2090313 13.3302497,21.5726875 C13.3302497,21.2545703 13.0772545,21 12.6977073,21 Z" id="Shape" fill="#FFFFFF"></path>
                    <path d="M10.8000257,10.6272578 L10.8000257,7 C10.8000257,6.61817187 10.4837545,6.36365625 10.1674833,6.36365625 L9.09211768,6.36365625 C8.1432497,6.36365625 7.19443608,6.3 6.30884409,6.23639844 L1.88088411,5.85457031 C1.5646129,5.79091406 1.31156332,5.53639844 1.31156332,5.21822656 L1.31156332,3.69091406 C1.31156332,3.37274219 1.5646129,3.11817187 1.88088411,3.05457031 L6.2455681,2.67274219 C6.68833692,2.60908594 7.19443608,2.60908594 7.6372049,2.54548437 C8.01675209,2.54548437 8.26974731,2.2273125 8.26974731,1.90914062 C8.26974731,1.5273125 7.95347611,1.27279687 7.6372049,1.27279687 C7.1311601,1.27279687 6.68833692,1.33645312 6.18229211,1.40005469 L1.75433214,1.78188281 C0.805464158,1.90914062 0.0464241338,2.73645312 0.0464241338,3.69096875 L0.0464241338,5.154625 C0.0464241338,6.17279687 0.805518519,6.93645312 1.75433214,7.06371094 L6.11901613,7.44553906 C7.06788411,7.50919531 8.07997372,7.57279687 9.02878734,7.57279687 L9.53483214,7.57279687 L9.53483214,7.63645312 L9.53483214,10.754625 C9.53483214,11.6455391 8.96551135,12.4091953 8.07991935,12.6000547 C7.44737694,12.7273125 7.00455376,13.3000547 7.00455376,14.0000547 C7.00455376,14.6363984 7.44732258,15.2727969 8.07991935,15.4000547 L9.97760096,15.9091406 L10.1040986,15.9091406 C10.3571481,15.9091406 10.6734194,15.7182266 10.736641,15.4000547 C10.799917,15.0818828 10.6101434,14.7000547 10.2938178,14.6363984 L8.3961362,14.1273125 C8.33286022,14.1273125 8.26963859,14.0636562 8.26963859,13.9363984 C8.26963859,13.8727422 8.33291458,13.8091406 8.3961362,13.7454844 C9.78793608,13.3636562 10.8000257,12.1545703 10.8000257,10.6272578 Z" id="Shape" fill="#FFFFFF"></path>
                    <path d="M10.8000257,7 C10.821309,6.6259421 10.4837545,6.36365625 10.1674833,6.36365625 L9.09211768,6.36365625 C8.1432497,6.36365625 7.19443608,6.3 6.30884409,6.23639844 L1.88088411,5.85457031 C1.5646129,5.79091406 1.31156332,5.53639844 1.31156332,5.21822656 L1.31156332,3.69091406 C1.31156332,3.37274219 1.5646129,3.11817187 1.88088411,3.05457031 L6.2455681,2.67274219 C6.68833692,2.60908594 7.19443608,2.60908594 7.6372049,2.54548437 C8.01675209,2.54548437 8.26974731,2.2273125 8.26974731,1.90914062 C8.26974731,1.5273125 7.95347611,1.27279687 7.6372049,1.27279687 C7.1311601,1.27279687 6.68833692,1.33645312 6.18229211,1.40005469 L1.75433214,1.78188281 C0.805464158,1.90914062 0.0464241338,2.73645312 0.0464241338,3.69096875 L0.0464241338,5.154625 C0.0464241338,6.17279687 0.805518519,6.93645312 1.75433214,7.06371094 L6.11901613,7.44553906 C7.06788411,7.50919531 8.07997372,7.57279687 9.02878734,7.57279687 L9.53483214,7.57279687 L9.53483214,7.63645312 L10,7.57279687 C10,7.57279687 10.8000257,7 10.8000257,7 Z" id="Shape" fill="#EFD8AB"></path>
                    <path d="M18.5805257,1.78182813 L14.2158417,1.4 C13.2037521,1.33634375 12.2548841,1.27274219 11.2427945,1.27274219 L10.7999713,1.27274219 L10.7999713,0.63634375 C10.8000257,0.254570313 10.5469761,0 10.1674833,0 C9.78799044,0 9.5348865,0.254570313 9.5348865,0.63634375 L9.5348865,1.90908594 C9.5348865,2.29091406 9.78793608,2.54542969 10.1674289,2.54542969 L11.2427945,2.54542969 C12.1916625,2.54542969 13.1404761,2.60908594 14.0260681,2.6726875 L18.3907521,3.05451563 C18.7070233,3.05451563 18.9600729,3.3726875 18.9600729,3.69085938 L18.9600729,5.15451563 C18.9600729,5.4726875 18.7070233,5.72725781 18.3907521,5.79085937 L14.0260681,6.1726875 C13.5832993,6.23634375 13.0772001,6.23634375 12.6344313,6.29994531 C12.2548841,6.29994531 12.0018889,6.61811719 12.0018889,6.93628906 C12.0018889,7.25446094 12.3181601,7.57263281 12.6344313,7.57263281 C13.1404761,7.57263281 13.5832993,7.50897656 14.0893441,7.445375 L18.4540281,7.06354687 C19.4661177,6.99989062 20.1619361,6.17263281 20.1619361,5.15446094 L20.1619361,3.69091406 C20.2884337,2.73634375 19.5293937,1.90908594 18.5805257,1.78182813 Z" id="Shape" fill="#DBDBDB"></path>
                    <path d="M18.5805257,1.78182813 L14.2158417,1.4 C13.2037521,1.33634375 12.2548841,1.27274219 11.2427945,1.27274219 L10.7999713,1.27274219 L10.7999713,0.63634375 C10.8000257,0.254570313 10.5469761,0 10.1674833,0 C9.78799044,0 9.5348865,0.254570313 9.5348865,0.63634375 L9.5348865,1.90908594 C9.5348865,2.29091406 9.78793608,2.54542969 10.1674289,2.54542969 L11.2427945,2.54542969 C12.1916625,2.54542969 13.1404761,2.60908594 14.0260681,2.6726875 L18.3907521,3.05451563 C18.7070233,3.05451563 18.9600729,3.3726875 18.9600729,3.69085938 L18.9600729,5.15451563 C18.9600729,5.4726875 18.7070233,5.72725781 18.3907521,5.79085937 L14.0260681,6.1726875 C13.5832993,6.23634375 13.0772001,6.23634375 12.6344313,6.29994531 C12.2548841,6.29994531 12.0018889,6.61811719 12.0018889,6.93628906 C12.0018889,7.25446094 12.3181601,7.57263281 12.6344313,7.57263281 C13.1404761,7.57263281 13.5832993,7.50897656 14.0893441,7.445375 L18.4540281,7.06354687 C19.4661177,6.99989062 20.1619361,6.17263281 20.1619361,5.15446094 L20.1619361,3.69091406 C20.2884337,2.73634375 19.5293937,1.90908594 18.5805257,1.78182813 Z" id="Shape" fill="#EFD8AB"></path>
                    <path d="M12.7609833,15.9090859 C12.3814361,15.9090859 12.1284409,16.2272578 12.1284409,16.5454297 C12.1284409,16.6090859 12.0651649,16.6726875 12.0019432,16.7363438 L8.1432497,17.6909141 C7.4474313,17.8181719 7.00466249,18.3909141 7.00466249,19.0909141 C7.00466249,19.7909141 7.4474313,20.3636563 8.08002808,20.4909141 L10.0409313,21 L10.1674289,21 C10.4837001,21 10.7367497,20.8090859 10.7999713,20.4909141 C10.863193,20.1727422 10.6734737,19.7909141 10.3571481,19.7272578 L8.39619056,19.2181719 C8.33291458,19.2181719 8.26969295,19.1545156 8.26969295,19.0272578 C8.26969295,18.9 8.33296894,18.9 8.39619056,18.8363438 L12.2548297,17.8817734 C12.8873722,17.6908594 13.3301953,17.1181172 13.3301953,16.4817734 C13.3935257,16.1636563 13.0772545,15.9090859 12.7609833,15.9090859 Z" id="Shape" fill="#FFFFFF"></path>
                </g>
            </g>
        </g>
    </g>
</svg>