<svg id="Слой_1" data-name="Слой 1" xmlns="http://www.w3.org/2000/svg" viewBox="0 0 139.71 32.6"><defs><style>.cls-1{fill:#fff;}</style></defs><title>logo</title><path class="cls-1" d="M0,22.29A4.79,4.79,0,0,1,.6,20.08a8.9,8.9,0,0,1,1.63-2.16A6.71,6.71,0,0,1,4.6,16.44a4.54,4.54,0,0,1,2.71-.2v2.91a3.73,3.73,0,0,0-3.15,1,3.46,3.46,0,0,0-1.11,2.31,2.93,2.93,0,0,0,1,2.07,5.46,5.46,0,0,0,2.72,1.38l.09,2.8A6.42,6.42,0,0,1,2,26.65,6.29,6.29,0,0,1,0,22.29ZM6.62,5.93A2.46,2.46,0,0,1,7.71,4.1a3.36,3.36,0,0,1,2.68-.71c.29,0,.78-.23,1.47-.82a4.55,4.55,0,0,1,1.7-1,4.87,4.87,0,0,1,2,.23,5.31,5.31,0,0,0,1.67.29,4,4,0,0,0,1.41-.85A3,3,0,0,1,20.21.43,2.2,2.2,0,0,1,21.88,1a3.6,3.6,0,0,1,.85,1.32c.19.49.35.77.51.85a4.36,4.36,0,0,0,2.45.2,1.31,1.31,0,0,1,1.08.55A1.75,1.75,0,0,1,27.3,5a5.4,5.4,0,0,0,.06.57,5,5,0,0,1,0,.72,2.86,2.86,0,0,1-.13.68,1.53,1.53,0,0,1-.48.7,3.45,3.45,0,0,1-.93.58,5.53,5.53,0,0,1-2.06.42A5.6,5.6,0,0,1,22,8.46c-.49-.15-1-.32-1.43-.49a3.94,3.94,0,0,0-.86-.26,2.35,2.35,0,0,0-1.33.49,3.56,3.56,0,0,1-1.32.61,5.14,5.14,0,0,1-2-.05,7.36,7.36,0,0,1-1.22-.39.78.78,0,0,0-.68,0,5.88,5.88,0,0,1-2.59.57A6.07,6.07,0,0,1,8,8.61,2.64,2.64,0,0,1,6.62,5.93Zm19.9,27L19,33v-.92a2.56,2.56,0,0,0,1.25-.55,2,2,0,0,0,.47-1l0-16.09a5.34,5.34,0,0,0-.86-1.24,3,3,0,0,0-.52-.42,5.78,5.78,0,0,0-.52-.33l-.2-.09H14.94a3.61,3.61,0,0,0-.86.72,2.92,2.92,0,0,0-.3.45,4.53,4.53,0,0,0-.25.47l-.08.21L13.73,30a2,2,0,0,0,1.79,2l.11,1-8,0V32a1.84,1.84,0,0,0,1.13-.46,3,3,0,0,0,.74-1.38l0-16.94A1.9,1.9,0,0,0,9,12.26a2.26,2.26,0,0,0-1-.69l0-1.06,18.75.17v.72a2.34,2.34,0,0,0-1.61.85,2,2,0,0,0-.64,1.48l.15,16.56c.27,1.15.87,1.74,1.81,1.76Z" transform="translate(0.03 -0.43)"/><path class="cls-1" d="M47.69,30c0,.1,0,.25,0,.47s0,.37,0,.5a4.37,4.37,0,0,0,0,.46,2.23,2.23,0,0,0,.09.45,1.08,1.08,0,0,0,.17.34.61.61,0,0,0,.3.25,1.22,1.22,0,0,0,.45.07V33H42.65a3.31,3.31,0,0,0,1.7-1.56l.06-1.18c0-.53-.19-.64-.49-.31a13.09,13.09,0,0,1-2.7,2.13,5.42,5.42,0,0,1-2.66.92c-2.84,0-4.9-.73-6.16-2.19S30.77,27.48,31.1,25a2.65,2.65,0,0,1,.37-1,5.22,5.22,0,0,1,.52-.75c.14-.14.4-.43.78-.85A5,5,0,0,0,34,20.79a1.16,1.16,0,0,0-.06-.38.83.83,0,0,0-.79-.5A2,2,0,0,0,32,20.2a3.33,3.33,0,0,0-.86.7,3.29,3.29,0,0,1-1.15.79,4.82,4.82,0,0,1-1.3.42l-.55.12a3.37,3.37,0,0,1,.85-.79l.79-.51a1.12,1.12,0,0,0,.46-.52,1.45,1.45,0,0,0,0-1,12.64,12.64,0,0,0-.81-1.88l.5.34a6.36,6.36,0,0,0,.64.38,2.63,2.63,0,0,0,.62.23,2.06,2.06,0,0,0,.77.09c.79-.06,1.62-.08,2.5-.07s1.66,0,2.37.07l1.07,0s-.12.17-.48.5l-1.15,1.11-.71.72a9.25,9.25,0,0,0-1.47,2.74,5.43,5.43,0,0,0,.64,4.92,6.49,6.49,0,0,0,2.43,2.34,5.12,5.12,0,0,0,3.13.63,6.49,6.49,0,0,0,2.53-1.14q1.5-1,1.56-1.86.16-2.61.11-5.93c0-.61,0-1.24,0-1.87s0-1.13,0-1.48,0-.55,0-.56a4.93,4.93,0,0,0,1.51.24,8,8,0,0,0,1.22,0c.25,0,.77-.17,1.57-.39L50,18.17c.08.19,0,.36-.2.52a7.5,7.5,0,0,1-.83.5,1.8,1.8,0,0,0-.69.53,9,9,0,0,0-.78,4.49c0,.83,0,1.93.11,3.29S47.69,29.69,47.69,30Z" transform="translate(0.03 -0.43)"/><path class="cls-1" d="M56.82,32.85l-4.15,0q.87-.69,1.2-3.33a31.38,31.38,0,0,0,.21-5.31,46.09,46.09,0,0,0-.43-4.84l-2.42-1,.71-.18a5.78,5.78,0,0,0,.79-.21l.75-.36a4.13,4.13,0,0,0,1-.65c.26-.24.6-.58,1-1a17.59,17.59,0,0,0,1.28-1.51l.15,5.13a4.47,4.47,0,0,1,2.62-1.8,5,5,0,0,1,3.14,0,4.09,4.09,0,0,1,1.87,1.21,3.2,3.2,0,0,1,.75,2.07,3.92,3.92,0,0,1-.64,2.28,2.86,2.86,0,0,1-1.87,1.35,4.17,4.17,0,0,1,2.88.92,4.28,4.28,0,0,1,1,3.17,4,4,0,0,1-1.36,2.91,5.32,5.32,0,0,1-2.36.95A49.54,49.54,0,0,1,56.82,32.85Zm.11-7-.23,4.86a6.43,6.43,0,0,0,2,.84,6,6,0,0,0,2.39.14,2.89,2.89,0,0,0,1.87-1,3.21,3.21,0,0,0,.78-2,3.14,3.14,0,0,0-.59-2.2,2.83,2.83,0,0,0-2.15-1.11A10.51,10.51,0,0,0,56.93,25.83Zm0-5.42,0,4.35a8.09,8.09,0,0,0,4.55-.43A2.67,2.67,0,0,0,62.85,23a3,3,0,0,0,.3-1.84,2.63,2.63,0,0,0-.67-1.47A2.15,2.15,0,0,0,61,19.06,6.62,6.62,0,0,0,56.88,20.41Z" transform="translate(0.03 -0.43)"/><path class="cls-1" d="M76.75,17.85a7.46,7.46,0,0,1,3.54.85,7.14,7.14,0,0,1,2.62,2.35,7.79,7.79,0,0,1,1.35,4.49,7.08,7.08,0,0,1-2.59,5.73A7.52,7.52,0,0,1,76.75,33a9,9,0,0,1-3.52-.72,8,8,0,0,1-2.85-2A6,6,0,0,1,68.57,26a7.83,7.83,0,0,1,2.53-6A8.16,8.16,0,0,1,76.75,17.85Zm4.89,8.06A7.94,7.94,0,0,0,80.12,21a4,4,0,0,0-3.32-1.9,4.66,4.66,0,0,0-3.62,1.78,7,7,0,0,0-1.79,4.78,6.66,6.66,0,0,0,1.41,4.21,4.91,4.91,0,0,0,4,2.13,4.2,4.2,0,0,0,3.46-1.73A6.9,6.9,0,0,0,81.64,25.91Z" transform="translate(0.03 -0.43)"/><path class="cls-1" d="M103.56,20.21v1.18l-.72.2v9.68c.06.08.13.17.22.27l.17.22a1.11,1.11,0,0,0,.16.17.46.46,0,0,0,.16.13l.17.1a.22.22,0,0,0,.2.06.44.44,0,0,1,.26,0,.64.64,0,0,0,.33,0,1.51,1.51,0,0,1,.43,0V33a6.88,6.88,0,0,0-1.91-.32,23.12,23.12,0,0,0-2.65.13c-1.09.11-1.79.17-2.12.19v-.72a1.67,1.67,0,0,0,1.9-1.1l-.06-9.67-5,7.6-5-7.49.12,9.54a1.85,1.85,0,0,0,2,1.12V33c-.31,0-1-.08-2-.19a19.68,19.68,0,0,0-2.45-.13,5.73,5.73,0,0,0-1.75.32v-.72A1.77,1.77,0,0,0,87.36,32a1.5,1.5,0,0,0,.65-1l-.06-9-2-.75v-.92A11.53,11.53,0,0,0,88.51,19a8.38,8.38,0,0,0,1.92-2.39l4.4,8,4.12-8a19.7,19.7,0,0,0,1.4,2.16,3.33,3.33,0,0,0,1.09.88A8.78,8.78,0,0,0,103.56,20.21Z" transform="translate(0.03 -0.43)"/><path class="cls-1" d="M111.25,33a4.3,4.3,0,0,1-2.82-.86,3.61,3.61,0,0,1-1.3-3,4.86,4.86,0,0,1,1.64-3.74,10.54,10.54,0,0,1,5.88-2.22,5.76,5.76,0,0,0,1.06-.3,12,12,0,0,0,1.13-.48l.49-.23a1.72,1.72,0,0,0-.82-1.93,3.9,3.9,0,0,0-2.61-.57,6.23,6.23,0,0,0-1.08.21,9.9,9.9,0,0,0-1.08.39c-.35.15-.64.29-.89.42s-.51.26-.78.42l-.43.25c-.54.29-.94.49-1.2.61a6.57,6.57,0,0,1-1.09.36,3.94,3.94,0,0,1-1.34.13,8.08,8.08,0,0,0,2.11-1,3.44,3.44,0,0,0,1.23-1.21c.09-.19,0-.45-.45-.79a10.36,10.36,0,0,1-1.18-1.2,1.54,1.54,0,0,1-.44-1.35,6,6,0,0,0,2.23,1.24,7.77,7.77,0,0,0,3,.55,25.49,25.49,0,0,1,3.5-.05,3.89,3.89,0,0,1,2.43.74,5.87,5.87,0,0,1,1.7,3,26.59,26.59,0,0,1,.17,5.27L120.09,31a2.16,2.16,0,0,0,.3.55,3.6,3.6,0,0,0,.39.43l.17.15,1.19.63a9.79,9.79,0,0,0-5.1.06l0-1.3a20.86,20.86,0,0,1-2.31.92A12.35,12.35,0,0,1,111.25,33Zm-1.1-4.26a2.84,2.84,0,0,0,.64,1.91,3,3,0,0,0,1.67,1,4.51,4.51,0,0,0,2.3-.09A4.21,4.21,0,0,0,117,30.12l0-5.67a7,7,0,0,0-4.7.69A3.85,3.85,0,0,0,110.15,28.71Z" transform="translate(0.03 -0.43)"/><path class="cls-1" d="M130.57,33l-4.8-.43L124.5,33v-.61l1.44-.83-.06-8.44c0-.06,0-.23,0-.53a5.87,5.87,0,0,0,0-.61,3.35,3.35,0,0,0-.11-.54,1.21,1.21,0,0,0-.29-.58,3.45,3.45,0,0,0-.56-.43A3.11,3.11,0,0,0,124,20a6.29,6.29,0,0,0,1.22-.23l.88-.3a2.61,2.61,0,0,0,.76-.59c.3-.31.49-.52.57-.62l.6-.88.61-.89q.1,5.8.11,8.78H135c0-.61,0-1.69,0-3.23s0-2.62,0-3.25a4.8,4.8,0,0,0,1.12.26,4.13,4.13,0,0,0,1.28-.1c.47-.11.83-.2,1.07-.28l1.17-.37c-.27.44-.47.75-.6.94a3.58,3.58,0,0,1-.59.63,3.12,3.12,0,0,1-1,.59l-.14,10.89,1.76.89V33l-1.5-.49-3.74.49,0-.38,1-1.26.12-4.87h-6.28l0,4.92,1.79,1.27Z" transform="translate(0.03 -0.43)"/><path class="cls-1" d="M31,13.56a2,2,0,0,1,.51-1.43,2.14,2.14,0,0,1,1.61-.78,1.68,1.68,0,0,1,.4.06l.54.15.38.12A.58.58,0,0,0,34,12a.41.41,0,0,0,0,.5h-.2s0,0,0-.08a1.2,1.2,0,0,0,0-.17,1.43,1.43,0,0,0-.08-.22,1,1,0,0,0-.13-.18.41.41,0,0,0-.19-.11,1.06,1.06,0,0,0-1.1.49,2.19,2.19,0,0,0-.38,1.23,1.57,1.57,0,0,0,.44,1.32A1.08,1.08,0,0,0,33,15a4.37,4.37,0,0,0,1.1-.1.59.59,0,0,0-.16.15.14.14,0,0,0,0,.15.31.31,0,0,0,.2.08,4.79,4.79,0,0,1-1.63,0,1.91,1.91,0,0,1-1.06-.49A1.82,1.82,0,0,1,31,13.56Z" transform="translate(0.03 -0.43)"/><path class="cls-1" d="M36.06,15.27a1.89,1.89,0,0,1-.82-.58,1.84,1.84,0,0,1-.36-1.16A2.16,2.16,0,0,1,35.53,12a1.54,1.54,0,0,1,1.16-.56,1.81,1.81,0,0,1,1.05.35,1.44,1.44,0,0,1,.56,1.55,1.84,1.84,0,0,0-1.23-.07l-.34.08-.37.07-.3,0a.82.82,0,0,1-.32,0,.64.64,0,0,1-.24-.1.94.94,0,0,0,.21,1.12,1.67,1.67,0,0,0,.95.55,2.53,2.53,0,0,0,1.18-.25c0,.15,0,.21.11.2a.8.8,0,0,0,.33-.22c-.1.31-.42.52-1,.62A2.35,2.35,0,0,1,36.06,15.27Zm-.49-2.35a.53.53,0,0,0,.22.08.91.91,0,0,0,.29,0l.29,0,.35-.07.33-.06a1.47,1.47,0,0,1,1,.07,1.07,1.07,0,0,0-.22-.5,1.31,1.31,0,0,0-.41-.34A2.56,2.56,0,0,0,37,11.9a1.16,1.16,0,0,0-.32-.06,1.11,1.11,0,0,0-.66.28A1.41,1.41,0,0,0,35.57,12.92Z" transform="translate(0.03 -0.43)"/><path class="cls-1" d="M41.57,15.5a2.57,2.57,0,0,0-1.87,0l.07-.2.21,0a.58.58,0,0,0,.18-.11.55.55,0,0,0,.17-.2,2.28,2.28,0,0,1-.1-1.17c0-.06,0-.19.05-.39s0-.34,0-.4,0-.21,0-.44a2.19,2.19,0,0,0,0-.49h-.77a.87.87,0,0,0-.57.76h-.06a2.7,2.7,0,0,0-.15-1.66,1.87,1.87,0,0,0,.82.33,5.57,5.57,0,0,0,1,.18,4.38,4.38,0,0,0,1-.17,3,3,0,0,0,.9-.35,2,2,0,0,0-.16,1.57l-.07.09a.6.6,0,0,0-.14-.39,2.08,2.08,0,0,0-.4-.35H41c0,.13,0,.26,0,.37s0,.25,0,.38,0,.23,0,.3,0,.18,0,.33,0,.25,0,.3A2.6,2.6,0,0,1,41,14.93a.3.3,0,0,0,0,.1l0,.08a.1.1,0,0,0,.06.05l0,0,.08,0h.27Z" transform="translate(0.03 -0.43)"/><path class="cls-1" d="M43.24,15.51l0-.22a.69.69,0,0,0,.43-.06,1,1,0,0,0,.29-.3V12.07L43.12,12a.31.31,0,0,0,.17-.14.18.18,0,0,0,0-.16,1.4,1.4,0,0,0-.1-.16l-.12-.16a.42.42,0,0,1-.07-.13,2.71,2.71,0,0,0,.85.53,2.36,2.36,0,0,0,1,0l0,.27-.29,0v1.1h.54l.49,0a2.18,2.18,0,0,1,.47.09l.34.18a.65.65,0,0,1,.26.31,1.19,1.19,0,0,1,.08.44v0a1.12,1.12,0,0,1-.15.76.75.75,0,0,1-.51.33,2.73,2.73,0,0,1-.73.06,5.32,5.32,0,0,1-.81-.06,4.07,4.07,0,0,0-.78,0A1.08,1.08,0,0,0,43.24,15.51Zm2.85-1.25a.74.74,0,0,0-.09-.38.77.77,0,0,0-.2-.23.71.71,0,0,0-.34-.12,3.64,3.64,0,0,0-.38,0h-.46v1.62h.47l.39-.05a.73.73,0,0,0,.33-.13.72.72,0,0,0,.19-.25A.79.79,0,0,0,46.09,14.26Z" transform="translate(0.03 -0.43)"/><path class="cls-1" d="M54.47,13.32a2,2,0,0,1-.36,1.1,1.36,1.36,0,0,1-.81.6,1.09,1.09,0,0,1-1.09-.47s0,.32-.06.89a8.44,8.44,0,0,0,0,1.26c.06.6.27.94.65,1,.6.13.89.24.86.34s-.3.14-.84.15l-.1,0a1.24,1.24,0,0,1-.25-.07A2.53,2.53,0,0,1,52.1,18a1.22,1.22,0,0,1-.3-.27,1.1,1.1,0,0,1-.24-.4,8.35,8.35,0,0,1-.18-.9,9,9,0,0,1-.07-1.83,1.3,1.3,0,0,1-1.4.4,1.28,1.28,0,0,1-.58-.59,2.45,2.45,0,0,1,.4-2.65,1.35,1.35,0,0,1,.76-.38,1,1,0,0,1,.76.19V11l-1,0c-.1,0-.15,0-.14,0v-.31l.24-.07c.1,0,.28-.11.53-.23a3.11,3.11,0,0,0,.63-.4,6.75,6.75,0,0,1,1.83-1.18,2.43,2.43,0,0,1,1.15-.16,1.69,1.69,0,0,1,.34.09l.22.12.06.06,0,.81a1.19,1.19,0,0,0-.34-.17.42.42,0,0,0-.32.05,1,1,0,0,0-.37.33V9.83a.51.51,0,0,0,0-.17L54,9.44a.52.52,0,0,0-.14-.2.55.55,0,0,0-.23-.11.65.65,0,0,0-.35,0,1.72,1.72,0,0,0-.38.2l-.34.26a2,2,0,0,0-.25.24l-.09.09v1.55a1.15,1.15,0,0,1,.61-.26,1.27,1.27,0,0,1,.67.11,1.67,1.67,0,0,1,.76.71A2.3,2.3,0,0,1,54.47,13.32Zm-4.89,0A1.21,1.21,0,0,0,50,14.41a.91.91,0,0,0,.65.12,1.15,1.15,0,0,0,.63-.34V12.08a1.09,1.09,0,0,0-.63-.18,1,1,0,0,0-.57.24A1.56,1.56,0,0,0,49.58,13.34ZM54,13.2a1.24,1.24,0,0,0-.18-.71,1.18,1.18,0,0,0-.52-.47,1.12,1.12,0,0,0-1.09,0l0,2.13a1.21,1.21,0,0,0,1,.28.85.85,0,0,0,.57-.41A1.59,1.59,0,0,0,54,13.2Z" transform="translate(0.03 -0.43)"/><path class="cls-1" d="M60.19,14.59V15l0,.12a.36.36,0,0,0,0,.09.16.16,0,0,0,.08.06.25.25,0,0,0,.12,0v.13H58.85A.8.8,0,0,0,59.3,15l0-.32c0-.14,0-.17-.13-.08a4.11,4.11,0,0,1-.72.57,1.45,1.45,0,0,1-.71.24,2,2,0,0,1-1.64-.58,1.9,1.9,0,0,1-.35-1.56.66.66,0,0,1,.1-.26,1.58,1.58,0,0,1,.14-.2l.21-.22a1.33,1.33,0,0,0,.31-.43.31.31,0,0,0,0-.1.26.26,0,0,0-.22-.14A.57.57,0,0,0,56,12a.73.73,0,0,0-.23.19,1.05,1.05,0,0,1-.31.21,1.7,1.7,0,0,1-.35.11l-.14,0a.88.88,0,0,1,.22-.21l.21-.13a.35.35,0,0,0,.13-.14.39.39,0,0,0,0-.28,3.5,3.5,0,0,0-.22-.5l.14.09.17.1.16.06.21,0c.21,0,.43,0,.66,0l.64,0h.28s0,0-.12.13l-.31.3c-.11.1-.17.17-.19.19a2.49,2.49,0,0,0-.39.73,1.44,1.44,0,0,0,.17,1.31,1.68,1.68,0,0,0,.65.62,1.29,1.29,0,0,0,.83.17,1.81,1.81,0,0,0,.68-.3c.26-.18.4-.34.41-.5,0-.46,0-1,0-1.58,0-.16,0-.33,0-.5s0-.3,0-.39v-.15a1.25,1.25,0,0,0,.4.06h.33l.42-.1.33-.09c0,.05,0,.09,0,.14l-.23.13a.59.59,0,0,0-.18.14,2.41,2.41,0,0,0-.21,1.2c0,.22,0,.51,0,.88S60.19,14.51,60.19,14.59Z" transform="translate(0.03 -0.43)"/><path class="cls-1" d="M62.9,15.11l-.13,2.21c-.08.23-.4.48-1,.75a.9.9,0,0,1,.08-.25c.05-.09.09-.18.14-.26a1.6,1.6,0,0,0,.14-.37,2.61,2.61,0,0,0,.06-.59l-.19-4.36-.83-.36v-.1a1.86,1.86,0,0,0,.48-.09l.36-.13a1.48,1.48,0,0,0,.37-.25l.33-.28.41-.39-.08,1.19v-.05a1.07,1.07,0,0,1,.76-.42,1.69,1.69,0,0,1,.89.17,1.93,1.93,0,0,1,.72.65,1.55,1.55,0,0,1,.3.94,2.78,2.78,0,0,1-.19,1,2.2,2.2,0,0,1-.48.75,2.43,2.43,0,0,1-.67.46,1.44,1.44,0,0,1-.77.12A1.56,1.56,0,0,1,62.9,15.11Zm2.25-1.94a1.22,1.22,0,0,0-.51-1,1.4,1.4,0,0,0-1-.28c-.33.05-.52.2-.57.46l0,2.26a1.13,1.13,0,0,0,.47.21,1.32,1.32,0,0,0,.56,0,1.61,1.61,0,0,0,.55-.25A1.24,1.24,0,0,0,65,14,2,2,0,0,0,65.15,13.17Z" transform="translate(0.03 -0.43)"/><path class="cls-1" d="M70.8,12v.32l-.19,0v2.58l0,.08a.23.23,0,0,1,0,.05l0,0,0,0,0,0a.07.07,0,0,0,.06,0H71s.07,0,.09,0h.12v.19a1.7,1.7,0,0,0-.51-.08,4.71,4.71,0,0,0-.71,0l-.56.05V15.2a.44.44,0,0,0,.5-.29V12.33l-1.34,2-1.33-2,0,2.54a.5.5,0,0,0,.55.3v.19l-.52-.05a4.06,4.06,0,0,0-.66,0,1.34,1.34,0,0,0-.46.08V15.2a.51.51,0,0,0,.33-.06.39.39,0,0,0,.17-.26V12.49l-.55-.2V12a3,3,0,0,0,.7-.37A2.45,2.45,0,0,0,67.3,11l1.17,2.12L69.57,11a5.22,5.22,0,0,0,.37.57.89.89,0,0,0,.3.24A2.16,2.16,0,0,0,70.8,12Z" transform="translate(0.03 -0.43)"/><path class="cls-1" d="M72.81,15.27a1.8,1.8,0,0,1-.81-.58,1.84,1.84,0,0,1-.36-1.16A2.15,2.15,0,0,1,72.28,12a1.56,1.56,0,0,1,1.16-.56,1.76,1.76,0,0,1,1,.35,1.4,1.4,0,0,1,.56,1.55,1.82,1.82,0,0,0-1.22-.07l-.35.08-.37.07-.29,0a.79.79,0,0,1-.32,0,.64.64,0,0,1-.24-.1.92.92,0,0,0,.21,1.12,1.65,1.65,0,0,0,.94.55,2.51,2.51,0,0,0,1.18-.25c0,.15,0,.21.11.2a.82.82,0,0,0,.34-.22c-.1.31-.43.52-1,.62A2.36,2.36,0,0,1,72.81,15.27Zm-.48-2.35a.49.49,0,0,0,.21.08.91.91,0,0,0,.29,0l.3,0,.35-.07.33-.06a1.45,1.45,0,0,1,1,.07,1,1,0,0,0-.22-.5,1.21,1.21,0,0,0-.41-.34,2.48,2.48,0,0,0-.43-.18,1.23,1.23,0,0,0-.32-.06,1.06,1.06,0,0,0-.66.28A1.36,1.36,0,0,0,72.33,12.92Z" transform="translate(0.03 -0.43)"/><path class="cls-1" d="M77.31,15.39,76,15.28l-.34.11v-.16l.39-.22,0-2.25v-.14a.4.4,0,0,0,0-.16.64.64,0,0,0,0-.15.26.26,0,0,0-.07-.15L75.81,12a.82.82,0,0,0-.25-.1,1.61,1.61,0,0,0,.33-.06,2.23,2.23,0,0,0,.23-.09.59.59,0,0,0,.21-.15l.14-.17a2.21,2.21,0,0,0,.17-.23c.08-.13.14-.21.16-.24,0,1,0,1.82,0,2.34H78.5V11.61a1.09,1.09,0,0,0,.3.07,1.35,1.35,0,0,0,.34,0l.29-.08.31-.1c-.07.12-.13.2-.16.25a.61.61,0,0,1-.16.17.72.72,0,0,1-.25.16l0,2.9.47.24v.19l-.4-.13-1,.13v-.1l.27-.34,0-1.29H76.83V15l.48.34Z" transform="translate(0.03 -0.43)"/><path class="cls-1" d="M82.11,15.39l-1.28-.11-.34.11v-.16l.39-.22,0-2.25v-.14a.4.4,0,0,0,0-.16.64.64,0,0,0,0-.15.26.26,0,0,0-.07-.15L80.61,12a.82.82,0,0,0-.25-.1,1.61,1.61,0,0,0,.33-.06l.23-.09a.59.59,0,0,0,.21-.15l.14-.17a2.21,2.21,0,0,0,.17-.23c.08-.13.14-.21.16-.24,0,1,0,1.82,0,2.34H83.3V11.61a1.09,1.09,0,0,0,.3.07,1.35,1.35,0,0,0,.34,0l.29-.08.31-.1c-.07.12-.13.2-.16.25a.61.61,0,0,1-.16.17.72.72,0,0,1-.25.16l0,2.9.47.24v.19l-.4-.13-1,.13v-.1l.28-.34,0-1.29H81.63V15l.48.34Z" transform="translate(0.03 -0.43)"/><path class="cls-1" d="M88.06,13.89A1.58,1.58,0,0,1,87.78,15a1.46,1.46,0,0,1-1.2.4l-1.48,0v-.19l.49-.23V12.07c0-.19,0-.3-.11-.36l-.17-.08-.21-.08a2.38,2.38,0,0,0,.61-.11,1.6,1.6,0,0,0,.52-.33c0,.71,0,1.26,0,1.63a1.34,1.34,0,0,1,1.48.16A1.36,1.36,0,0,1,88.06,13.89Zm-.73.2a1.1,1.1,0,0,0-.27-.85,1,1,0,0,0-.85-.2v2.05a1.25,1.25,0,0,0,.85-.24A1.09,1.09,0,0,0,87.33,14.09ZM89.49,11c0,.14,0,.29,0,.46a1.84,1.84,0,0,0,.08.58c0,.15-.06.34-.09.58a7,7,0,0,0,0,1.14A2.6,2.6,0,0,0,89.63,15a.49.49,0,0,0,.12.13l.16.08H90v.2a3.4,3.4,0,0,1-.48-.07L89,15.25a.57.57,0,0,0-.45.14V15.2l.27-.26V12.07L88,11.8a2.39,2.39,0,0,0,.77-.31A4.43,4.43,0,0,0,89.49,11Z" transform="translate(0.03 -0.43)"/><path class="cls-1" d="M94.44,15.39H92.69V15.2l.4-.21a.63.63,0,0,1-.31-.25,1,1,0,0,1-.15-.37A1,1,0,0,0,92.5,14a.49.49,0,0,0-.28-.25A.39.39,0,0,0,92,14a1.76,1.76,0,0,0-.17.37,1.46,1.46,0,0,1-.18.38.51.51,0,0,1-.28.23l.38.25v.19H90.23l0-.11a.25.25,0,0,0,.2,0,.9.9,0,0,0,.23-.15.71.71,0,0,1,.19-.13,1.09,1.09,0,0,0,.34-.39,2.43,2.43,0,0,0,.19-.47,1,1,0,0,1,.23-.4.71.71,0,0,1,.44-.24.92.92,0,0,1-.26-.32,1.6,1.6,0,0,1-.15-.37,1.33,1.33,0,0,0-.21-.41,1.74,1.74,0,0,0-.46-.43l-.58-.16-.27-.59a1.71,1.71,0,0,0,.66.28,3.35,3.35,0,0,0,.73.07,3.42,3.42,0,0,1,.62,0v.2l-.4.18a1.38,1.38,0,0,1,.26.38,2.79,2.79,0,0,0,.25.46.46.46,0,0,0,.29.25.69.69,0,0,1,.16-.32,1,1,0,0,1,.25-.22,1.6,1.6,0,0,0,.24-.22.53.53,0,0,0,.12-.28l-.37-.23v-.2a1.41,1.41,0,0,1,.53,0,1.55,1.55,0,0,0,1.12-.34l-.28.57-.47.22a1,1,0,0,1-.21.46,1.19,1.19,0,0,1-.34.27,1.18,1.18,0,0,0-.34.24.74.74,0,0,0-.24.35,1.24,1.24,0,0,1,.33.4,3.28,3.28,0,0,1,.21.49,1.43,1.43,0,0,0,.25.47.94.94,0,0,0,.43.33,1.16,1.16,0,0,1,.2.15.48.48,0,0,0,.34.13Z" transform="translate(0.03 -0.43)"/><path class="cls-1" d="M101.17,12v.32l-.19,0v2.58L101,15l0,.05,0,0,0,0,0,0a.06.06,0,0,0,0,0h.07a.14.14,0,0,0,.09,0h.11v.19a1.7,1.7,0,0,0-.51-.08,4.71,4.71,0,0,0-.71,0l-.56.05V15.2a.45.45,0,0,0,.51-.29l0-2.58-1.34,2-1.32-2,0,2.54a.49.49,0,0,0,.54.3v.19l-.52-.05a3.94,3.94,0,0,0-.65,0,1.4,1.4,0,0,0-.47.08V15.2a.51.51,0,0,0,.33-.06.44.44,0,0,0,.18-.26l0-2.39-.54-.2V12a3.1,3.1,0,0,0,.69-.37,2.1,2.1,0,0,0,.51-.64l1.18,2.12L99.94,11a4.87,4.87,0,0,0,.38.57.85.85,0,0,0,.29.24A2.16,2.16,0,0,0,101.17,12Z" transform="translate(0.03 -0.43)"/><path class="cls-1" d="M103.22,15.39a1.11,1.11,0,0,1-.75-.24,1,1,0,0,1-.34-.79,1.29,1.29,0,0,1,.43-1,2.8,2.8,0,0,1,1.57-.59,1.56,1.56,0,0,0,.28-.08l.3-.13.13-.06a.46.46,0,0,0-.21-.52,1.09,1.09,0,0,0-.7-.15l-.29.06-.29.1-.23.11-.21.11-.12.07a3.08,3.08,0,0,1-.32.16,1.34,1.34,0,0,1-.29.1,1.06,1.06,0,0,1-.35,0,2.05,2.05,0,0,0,.56-.26.93.93,0,0,0,.33-.33q0-.08-.12-.21a2.41,2.41,0,0,1-.32-.32.44.44,0,0,1-.12-.36,1.77,1.77,0,0,0,.6.33,2,2,0,0,0,.8.15,5.78,5.78,0,0,1,.93,0,1,1,0,0,1,.65.19,1.58,1.58,0,0,1,.46.79,7.44,7.44,0,0,1,0,1.41l-.06.91a.55.55,0,0,0,.08.15.56.56,0,0,0,.11.11l0,0,.32.17a2.55,2.55,0,0,0-1.36,0V15c-.22.1-.43.19-.61.25A3.5,3.5,0,0,1,103.22,15.39Zm-.29-1.14a.77.77,0,0,0,.17.51.78.78,0,0,0,.45.26,1.16,1.16,0,0,0,.61,0,1.08,1.08,0,0,0,.6-.37V13.11a1.85,1.85,0,0,0-1.25.19A1,1,0,0,0,102.93,14.25Z" transform="translate(0.03 -0.43)"/><path class="cls-1" d="M107.69,11.93v3l.63.25v.19l-.15,0-.16,0-.14,0-.15,0h-.46l-.19,0-.2,0-.24,0v-.19l.44-.25V12.07a.25.25,0,0,0-.09-.26,1.55,1.55,0,0,0-.49-.25,4.62,4.62,0,0,1,.72-.07l.72,0a3.31,3.31,0,0,0,.7-.12,2.12,2.12,0,0,0,.72-.36,1.36,1.36,0,0,0-.09.23c0,.08,0,.15,0,.2a.53.53,0,0,0,0,.21c0,.08,0,.14,0,.18a1,1,0,0,0,.09.19.9.9,0,0,1,.1.18l.13.18c.06.1.11.16.12.18l-.54-.27a1.44,1.44,0,0,0-.35-.38.59.59,0,0,0-.4-.12,1.82,1.82,0,0,0-.37,0A2.2,2.2,0,0,0,107.69,11.93Z" transform="translate(0.03 -0.43)"/><path class="cls-1" d="M111.4,15.39a1.09,1.09,0,0,1-.75-.24,1,1,0,0,1-.35-.79,1.3,1.3,0,0,1,.44-1,2.8,2.8,0,0,1,1.57-.59l.28-.08.3-.13.13-.06a.45.45,0,0,0-.22-.52,1,1,0,0,0-.69-.15l-.29.06-.29.1-.24.11-.2.11-.12.07-.32.16a1.58,1.58,0,0,1-.29.1,1.1,1.1,0,0,1-.36,0,2.12,2.12,0,0,0,.57-.26,1,1,0,0,0,.33-.33q0-.08-.12-.21a2.41,2.41,0,0,1-.32-.32.44.44,0,0,1-.12-.36,1.77,1.77,0,0,0,.6.33,2,2,0,0,0,.8.15,5.78,5.78,0,0,1,.93,0,1,1,0,0,1,.65.19,1.58,1.58,0,0,1,.46.79,7.44,7.44,0,0,1,0,1.41l-.06.91a.55.55,0,0,0,.08.15.38.38,0,0,0,.11.11l0,0,.31.17a2.51,2.51,0,0,0-1.35,0V15a5.75,5.75,0,0,1-.62.25A3.43,3.43,0,0,1,111.4,15.39Zm-.29-1.14a.77.77,0,0,0,.17.51.79.79,0,0,0,.44.26,1.19,1.19,0,0,0,.62,0,1.08,1.08,0,0,0,.6-.37V13.11a1.88,1.88,0,0,0-1.26.19A1,1,0,0,0,111.11,14.25Z" transform="translate(0.03 -0.43)"/><path class="cls-1" d="M116.86,12.48a.64.64,0,0,0-.31-.53,1.28,1.28,0,0,0-.57-.18,1.37,1.37,0,0,0-.61.08l-.42.64h-.25a.58.58,0,0,0,.07-.21.47.47,0,0,0,0-.2,1.19,1.19,0,0,0-.08-.2c0-.07-.06-.16-.11-.27s-.08-.24-.11-.37v0l0,.07a.24.24,0,0,0,.08.09.68.68,0,0,0,.17.08.84.84,0,0,0,.24.06,2.52,2.52,0,0,0,.75-.06,2,2,0,0,1,1.16.11c.46.16.69.41.69.74a.93.93,0,0,1-.19.63,1.54,1.54,0,0,1-1,.39,2.92,2.92,0,0,1,1,.36.66.66,0,0,1,.32.78,1.32,1.32,0,0,1-.62.68,2.45,2.45,0,0,1-.85.29,1.86,1.86,0,0,1-1-.16,2.34,2.34,0,0,1-.58-.4,1.91,1.91,0,0,1-.32-.51c.21.14.37.15.5,0a2,2,0,0,0,.18.36.92.92,0,0,0,.32.33,1.12,1.12,0,0,0,.55.08,1.09,1.09,0,0,0,.51-.15.77.77,0,0,0,.43-.69.84.84,0,0,0-.31-.63,1.12,1.12,0,0,0-.6-.22l-.29.12a.37.37,0,0,0,.12-.22c0-.06,0-.13-.13-.22l.3.11a1.37,1.37,0,0,0,.62-.32A.68.68,0,0,0,116.86,12.48Z" transform="translate(0.03 -0.43)"/><path class="cls-1" d="M123,14.59v.12a.72.72,0,0,0,0,.13s0,.08,0,.13a.37.37,0,0,0,0,.12.41.41,0,0,0,0,.09.16.16,0,0,0,.08.06.22.22,0,0,0,.12,0v.13h-1.61a.87.87,0,0,0,.45-.41v-.32c0-.14,0-.17-.13-.08a3.7,3.7,0,0,1-.71.57,1.52,1.52,0,0,1-.71.24,2.08,2.08,0,0,1-1.65-.58,1.9,1.9,0,0,1-.34-1.56.66.66,0,0,1,.1-.26,1.76,1.76,0,0,1,.13-.2l.21-.22a1.44,1.44,0,0,0,.32-.43.3.3,0,0,0,0-.1.23.23,0,0,0-.21-.14.6.6,0,0,0-.29.08.87.87,0,0,0-.23.19.84.84,0,0,1-.31.21,1.47,1.47,0,0,1-.34.11l-.15,0a.93.93,0,0,1,.23-.21l.21-.13a.41.41,0,0,0,.12-.14.44.44,0,0,0,0-.28,3.5,3.5,0,0,0-.22-.5l.13.09.17.1.17.06.21,0c.21,0,.43,0,.66,0l.63,0h.29s0,0-.13.13l-.3.3a1,1,0,0,0-.19.19,2.28,2.28,0,0,0-.4.73,1.47,1.47,0,0,0,.17,1.31,1.75,1.75,0,0,0,.65.62,1.32,1.32,0,0,0,.84.17,1.71,1.71,0,0,0,.67-.3c.27-.18.41-.34.42-.5,0-.46,0-1,0-1.58,0-.16,0-.33,0-.5s0-.3,0-.39a.85.85,0,0,0,0-.15,1.31,1.31,0,0,0,.41.06h.32l.42-.1.34-.09c0,.05,0,.09-.06.14a1.83,1.83,0,0,1-.22.13.59.59,0,0,0-.18.14,2.41,2.41,0,0,0-.21,1.2c0,.22,0,.51,0,.88S123,14.51,123,14.59Z" transform="translate(0.03 -0.43)"/><path class="cls-1" d="M125.84,15.39l-1.28-.11-.34.11v-.16l.38-.22V12.46a.64.64,0,0,0,0-.15.35.35,0,0,0-.07-.15.74.74,0,0,0-.16-.12.67.67,0,0,0-.24-.1,1.61,1.61,0,0,0,.33-.06l.23-.09a.57.57,0,0,0,.2-.15,1.35,1.35,0,0,0,.15-.17s.08-.1.16-.23l.17-.24c0,1,0,1.82,0,2.34H127c0-.16,0-.45,0-.86v-.87a1.09,1.09,0,0,0,.3.07,1.35,1.35,0,0,0,.34,0l.29-.08.31-.1c-.07.12-.13.2-.16.25a.81.81,0,0,1-.16.17.72.72,0,0,1-.25.16l0,2.9.47.24v.19l-.4-.13-1,.13v-.1L127,15l0-1.29h-1.67V15l.47.34Z" transform="translate(0.03 -0.43)"/><path class="cls-1" d="M131,11.35a2,2,0,0,1,1,.23,1.85,1.85,0,0,1,.7.63A2.06,2.06,0,0,1,133,13.4a1.88,1.88,0,0,1-.69,1.53,2,2,0,0,1-1.32.46,2.31,2.31,0,0,1-.93-.19,2.08,2.08,0,0,1-.76-.53,1.62,1.62,0,0,1-.49-1.15,2.09,2.09,0,0,1,.68-1.6A2.16,2.16,0,0,1,131,11.35Zm1.31,2.15a2.13,2.13,0,0,0-.41-1.31,1.06,1.06,0,0,0-.88-.51,1.25,1.25,0,0,0-1,.48,1.88,1.88,0,0,0-.47,1.27,1.8,1.8,0,0,0,.37,1.13,1.34,1.34,0,0,0,1.07.56,1.11,1.11,0,0,0,.92-.46A1.79,1.79,0,0,0,132.26,13.5Z" transform="translate(0.03 -0.43)"/><path class="cls-1" d="M134.93,15.35h-1.11a1.46,1.46,0,0,0,.32-.89A8.39,8.39,0,0,0,134.2,13a11.83,11.83,0,0,0-.12-1.29l-.64-.25.18-.05.22,0,.19-.1a1.06,1.06,0,0,0,.26-.17l.27-.27a5.29,5.29,0,0,0,.34-.41l0,1.37a1.31,1.31,0,0,1,.7-.48,1.41,1.41,0,0,1,.84,0,1.16,1.16,0,0,1,.5.33.9.9,0,0,1,.2.55,1.07,1.07,0,0,1-.17.61.82.82,0,0,1-.5.36,1.08,1.08,0,0,1,.77.24,1.14,1.14,0,0,1,.27.85,1,1,0,0,1-.36.77,1.53,1.53,0,0,1-.63.26A15.85,15.85,0,0,1,134.93,15.35Zm0-1.87-.06,1.3a1.6,1.6,0,0,0,.54.22,1.57,1.57,0,0,0,.64,0,.8.8,0,0,0,.5-.27.91.91,0,0,0,.2-.53.82.82,0,0,0-.15-.59.76.76,0,0,0-.57-.29A2.7,2.7,0,0,0,135,13.48Zm0-1.44,0,1.16a2.16,2.16,0,0,0,1.21-.12.7.7,0,0,0,.36-.34.88.88,0,0,0,.09-.5.78.78,0,0,0-.18-.39.57.57,0,0,0-.4-.17A1.78,1.78,0,0,0,134.94,12Z" transform="translate(0.03 -0.43)"/></svg>