<?xml version="1.0" encoding="UTF-8" standalone="no"?>
<svg width="32px" height="24px" viewBox="0 0 32 24" version="1.1" xmlns="http://www.w3.org/2000/svg" xmlns:xlink="http://www.w3.org/1999/xlink">
    <!-- Generator: Sketch 41.1 (35376) - http://www.bohemiancoding.com/sketch -->
    <title>nachos 1</title>
    <desc>Created with Sketch.</desc>
    <defs></defs>
    <g id="Symbols" stroke="none" stroke-width="1" fill="none" fill-rule="evenodd">
        <g id="menu-copy" transform="translate(-599.000000, -86.000000)">
            <g id="nachos-1" transform="translate(599.000000, 86.000000)">
                <g id="Capa_1">
                    <path d="M31.5069375,11.1799794 C31.1085625,10.6583505 30.5294375,10.3312577 29.8883125,10.2572165 L27.764375,6.6163299 L27.4270625,1.51125773 C27.3886875,0.930494845 27.050875,0.429896907 26.523375,0.172391753 C25.9959375,-0.0851134021 25.3890625,-0.0458969072 24.9,0.277484536 L20.9934375,2.85995876 C20.797,2.66412371 20.550125,2.51851546 20.273125,2.44138144 C19.8223125,2.316 19.3391875,2.39078351 18.94525,2.64624742 C18.732625,2.37754639 18.435625,2.18047423 18.08675,2.088 L11.287875,0.284969072 C10.719875,0.134164948 10.1323125,0.290041237 9.7164375,0.701628866 C9.3005,1.11327835 9.143125,1.69459794 9.295375,2.25692784 L9.4655625,2.88562887 L6.38175,0.856391753 C5.891875,0.534061856 5.2849375,0.495958763 4.7580625,0.754762887 C4.2311875,1.01338144 3.8945,1.51459794 3.857375,2.09554639 L3.6331875,5.6051134 L3.59525,5.59509278 C3.0271875,5.44441237 2.43975,5.6002268 2.0238125,6.01175258 C1.607875,6.42340206 1.4505,7.00472165 1.60275,7.56705155 L2.3271875,10.2429897 C1.6015,10.2626598 0.93575,10.6012577 0.4925625,11.1807216 C0.030375,11.7849897 -0.115375,12.5503299 0.09275,13.2804124 C0.947375,16.2786186 3.25625,18.8927629 6.60725,20.6657938 C6.67825,21.5495258 7.0726875,22.3688041 7.7285625,22.9874227 C8.41825,23.6380206 9.320625,23.9963505 10.269375,23.9963505 L21.7321875,23.9963505 C22.6809375,23.9963505 23.5833125,23.6380206 24.2730625,22.9874227 C24.92875,22.3689278 25.323125,21.5498969 25.3943125,20.6666598 C28.7406875,18.8963505 31.0480625,16.2860412 31.9055625,13.2919794 C32.1160625,12.5570103 31.97075,11.7872165 31.5069375,11.1799794 Z" id="Shape" fill="#EFD8AB"></path>
                    <path d="M2.7094375,6.69030928 C2.8774375,6.52397938 3.11475,6.46119588 3.3443125,6.522 L3.95075,6.68282474 C3.9518125,6.68307216 3.952875,6.68338144 3.9539375,6.68362887 L8.482625,7.8845567 L7.555,9.47474227 C7.4155,9.71387629 7.3425,9.97639175 7.3361875,10.2410722 L3.3305625,10.2410722 L2.5393125,7.31857732 C2.4778125,7.0914433 2.5414375,6.85651546 2.7094375,6.69030928 Z" id="Path" fill="#DEB44C"></path>
                    <path d="M30.9726875,13.030268 C30.1849375,15.7809278 28.03275,18.1910722 24.9023125,19.837732 L11.474875,19.837732 C11.207125,19.837732 10.9900625,20.0524948 10.9900625,20.3175464 C10.9900625,20.5825979 11.207125,20.7973608 11.474875,20.7973608 L24.40125,20.7973608 C24.192625,22.0582887 23.0593125,23.0365979 21.7323125,23.0365979 L10.2694375,23.0365979 C8.9423125,23.0365979 7.8089375,22.0582268 7.6005,20.7973608 L9.535625,20.7973608 C9.803375,20.7973608 10.0204375,20.5825979 10.0204375,20.3175464 C10.0204375,20.0524948 9.803375,19.837732 9.535625,19.837732 L7.1008125,19.837732 C3.9651875,18.1885979 1.8113125,15.7745567 1.0260625,13.0198144 C0.9011875,12.581567 0.9885,12.1223505 1.26575,11.7598144 C1.5375,11.4044536 1.9485625,11.200701 2.3936875,11.200701 L2.95675,11.200701 C2.95725,11.200701 2.9578125,11.2008247 2.9583125,11.2008247 C2.9589375,11.2008247 2.959625,11.200701 2.96025,11.200701 L7.911125,11.200701 L7.91675,11.200701 L17.051375,11.200701 C17.0521875,11.200701 17.0530625,11.2008247 17.053875,11.2008247 C17.0544375,11.2008247 17.0550625,11.200701 17.055625,11.200701 L23.7398125,11.200701 C23.7404375,11.200701 23.7410625,11.2008247 23.7416875,11.2008247 C23.7421875,11.2008247 23.74275,11.200701 23.74325,11.200701 L29.5984375,11.200701 C29.59875,11.200701 29.5990625,11.2007629 29.5994375,11.2007629 C29.5998125,11.2007629 29.6000625,11.200701 29.6004375,11.200701 L29.608125,11.200701 C30.0525,11.200701 30.462625,11.4040825 30.7334375,11.7586392 C31.0123125,12.1238351 31.0995625,12.5872577 30.9726875,13.030268 Z" id="Path" fill="#C44871"></path>
                    <path d="M4.825,2.15610309 C4.84,1.92142268 4.976,1.71896907 5.188875,1.61449485 C5.4016875,1.50995876 5.646875,1.52523711 5.84475,1.65562887 L10.37675,4.63756701 L8.984375,7.0243299 L4.588375,5.85859794 L4.825,2.15610309 Z" id="Path" fill="#FFAC4D"></path>
                    <path d="M10.4020625,1.38018557 C10.5700625,1.21385567 10.8073125,1.15107216 11.036875,1.21187629 L17.83575,3.01484536 C17.9529375,3.04589691 18.053875,3.1042268 18.1334375,3.18371134 L14.966125,5.28296907 L13.892125,3.44195876 C13.5980625,2.93783505 13.0713125,2.63684536 12.4831875,2.63684536 C11.8950625,2.63684536 11.3683125,2.9377732 11.07425,3.44195876 L10.8625625,3.80486598 L10.687,3.68931959 L10.2319375,2.00857732 C10.1704375,1.78131959 10.2340625,1.54639175 10.4020625,1.38018557 Z" id="Path" fill="#FAC541"></path>
                    <path d="M16.660375,10.2410722 L8.306125,10.2410722 C8.31125,10.1536701 8.3355,10.0561856 8.3946875,9.9545567 L11.9140625,3.92164948 C12.032875,3.71795876 12.245625,3.59641237 12.48325,3.59641237 C12.720875,3.59641237 12.933625,3.71795876 13.0524375,3.92164948 L16.5718125,9.9545567 C16.631,10.0561237 16.65525,10.1536082 16.660375,10.2410722 Z" id="Path" fill="#FFF78A"></path>
                    <path d="M19.0275625,3.74597938 C19.0284375,3.74542268 19.029375,3.74474227 19.03025,3.74418557 L19.4709375,3.45210309 C19.6335625,3.34428866 19.825125,3.31342268 20.0105,3.36501031 C20.1993125,3.41758763 20.3534375,3.54593814 20.43325,3.71727835 C20.467,3.78971134 20.486875,3.8677732 20.492375,3.94923711 L20.69525,6.96439175 L16.5660625,8.02558763 L15.4519375,6.11573196 L19.0275625,3.74597938 Z" id="Path" fill="#FFFFBE"></path>
                    <path d="M21.332875,7.79195876 C21.333875,7.79171134 21.334875,7.79146392 21.335875,7.79121649 L23.1648125,7.32117526 C23.21225,7.30905155 23.261375,7.30181443 23.3105,7.29995876 C23.5150625,7.29327835 23.7158125,7.38531959 23.846875,7.54917526 C23.923625,7.64498969 24.04075,7.84719588 23.9634375,8.124 L23.3725,10.2410722 L22.4623125,10.2410722 C22.57275,10.1531134 22.6435,10.0184536 22.6435,9.86727835 C22.6435,9.60228866 22.4264375,9.38746392 22.1586875,9.38746392 C21.8909375,9.38746392 21.673875,9.60228866 21.673875,9.86727835 C21.673875,10.0185155 21.74475,10.1531753 21.8551875,10.241134 L17.630375,10.241134 C17.6240625,9.97645361 17.5510625,9.714 17.4115625,9.47480412 L17.069125,8.88779381 L21.332875,7.79195876 Z" id="Path" fill="#FFEA4D"></path>
                    <path d="M25.438625,1.07542268 C25.6361875,0.944783505 25.881375,0.928824742 26.0944375,1.03298969 C26.3075,1.13703093 26.4439375,1.33917526 26.4594375,1.57379381 L26.668875,4.74426804 C26.367625,4.28635052 25.8655625,4.01529897 25.30775,4.01529897 C24.7195625,4.01529897 24.192875,4.3162268 23.8988125,4.82035052 L22.9910625,6.3763299 C22.967625,6.38134021 22.944125,6.38641237 22.9209375,6.39241237 L21.6505625,6.7188866 L21.4599375,3.88558763 C21.4561875,3.82942268 21.4488125,3.774 21.439375,3.71907216 L25.438625,1.07542268 Z" id="Path" fill="#FBC48C"></path>
                    <path d="M26.8731875,7.00762887 L28.7594375,10.2410103 L25.5006875,10.2410103 C25.6111875,10.1530515 25.6819375,10.0183918 25.6819375,9.86715464 C25.6818125,9.6022268 25.46475,9.38740206 25.197,9.38740206 C24.92925,9.38740206 24.7121875,9.6022268 24.7121875,9.86721649 C24.7121875,10.0184536 24.7830625,10.1531134 24.8935,10.2410722 L24.3785,10.2410722 L24.898125,8.37952577 C25.0378125,7.87898969 24.9318125,7.35915464 24.607125,6.95331959 C24.452125,6.75964948 24.2563125,6.60661856 24.037875,6.50158763 L24.73875,5.30016495 C24.8575625,5.09653608 25.0703125,4.97498969 25.3079375,4.97498969 C25.5455625,4.97498969 25.7583125,5.09653608 25.877125,5.30016495 L26.8719375,7.00540206 C26.8723125,7.00620619 26.8726875,7.0068866 26.8731875,7.00762887 Z" id="Path" fill="#FFF68A"></path>
                    <ellipse id="Oval" fill="#1C1C1A" cx="22.481875" cy="5.29261856" rx="0.4848125" ry="0.479814433"></ellipse>
                    <ellipse id="Oval" fill="#1C1C1A" cx="23.6455" cy="3.46923711" rx="0.4848125" ry="0.479814433"></ellipse>
                    <ellipse id="Oval" fill="#1C1C1A" cx="25.4555" cy="2.57356701" rx="0.4848125" ry="0.479814433"></ellipse>
                    <ellipse id="Oval" fill="#1C1C1A" cx="11.039875" cy="2.12573196" rx="0.4848125" ry="0.479814433"></ellipse>
                    <ellipse id="Oval" fill="#1C1C1A" cx="15.177125" cy="3.66117526" rx="0.4848125" ry="0.479814433"></ellipse>
                    <ellipse id="Oval" fill="#1C1C1A" cx="17.439625" cy="7.05197938" rx="0.4848125" ry="0.479814433"></ellipse>
                    <ellipse id="Oval" fill="#1C1C1A" cx="19.379" cy="6.41220619" rx="0.4848125" ry="0.479814433"></ellipse>
                    <ellipse id="Oval" fill="#1C1C1A" cx="17.9568125" cy="5.58049485" rx="0.4848125" ry="0.479814433"></ellipse>
                    <ellipse id="Oval" fill="#1C1C1A" cx="7.8109375" cy="5.90164948" rx="0.4848125" ry="0.479814433"></ellipse>
                    <ellipse id="Oval" fill="#1C1C1A" cx="5.869" cy="5.20435052" rx="0.4848125" ry="0.479814433"></ellipse>
                    <ellipse id="Oval" fill="#1C1C1A" cx="5.86125" cy="3.47690722" rx="0.4848125" ry="0.479814433"></ellipse>
                    <ellipse id="Oval" fill="#1C1C1A" cx="7.8038125" cy="4.43016495" rx="0.4848125" ry="0.479814433"></ellipse>
                    <ellipse id="Oval" fill="#1C1C1A" cx="6.9673125" cy="9.22725773" rx="0.4848125" ry="0.479814433"></ellipse>
                    <ellipse id="Oval" fill="#1C1C1A" cx="5.6744375" cy="7.94764948" rx="0.4848125" ry="0.479814433"></ellipse>
                    <ellipse id="Oval" fill="#1C1C1A" cx="26.68375" cy="8.84338144" rx="0.4848125" ry="0.479814433"></ellipse>
                    <ellipse id="Oval" fill="#1C1C1A" cx="25.4848125" cy="7.47981443" rx="0.4848125" ry="0.479814433"></ellipse>
                    <ellipse id="Oval" fill="#1C1C1A" cx="18.9264375" cy="9.48315464" rx="0.4848125" ry="0.479814433"></ellipse>
                    <ellipse id="Oval" fill="#1C1C1A" cx="20.8658125" cy="8.77936082" rx="0.4848125" ry="0.479814433"></ellipse>
                    <ellipse id="Oval" fill="#1C1C1A" cx="10.8459375" cy="8.20360825" rx="0.4848125" ry="0.479814433"></ellipse>
                    <ellipse id="Oval" fill="#1C1C1A" cx="12.3974375" cy="5.77243299" rx="0.4848125" ry="0.479814433"></ellipse>
                    <ellipse id="Oval" fill="#1C1C1A" cx="12.7853125" cy="9.48315464" rx="0.4848125" ry="0.479814433"></ellipse>
                    <ellipse id="Oval" fill="#1C1C1A" cx="13.43175" cy="7.56383505" rx="0.4848125" ry="0.479814433"></ellipse>
                    <ellipse id="Oval" fill="#1C1C1A" cx="14.724625" cy="9.48315464" rx="0.4848125" ry="0.479814433"></ellipse>
                </g>
            </g>
        </g>
    </g>
</svg>