<?xml version="1.0" encoding="UTF-8" standalone="no"?>
<svg width="15px" height="28px" viewBox="0 0 15 28" version="1.1" xmlns="http://www.w3.org/2000/svg" xmlns:xlink="http://www.w3.org/1999/xlink">
    <!-- Generator: Sketch 41.1 (35376) - http://www.bohemiancoding.com/sketch -->
    <title>soda</title>
    <desc>Created with Sketch.</desc>
    <defs></defs>
    <g id="Symbols" stroke="none" stroke-width="1" fill="none" fill-rule="evenodd">
        <g id="menu" transform="translate(-950.000000, -84.000000)" fill="#EFD8AB">
            <g id="soda" transform="translate(950.000000, 84.000000)">
                <g id="Group">
                    <path d="M14.2529276,6.98891915 C14.1681598,6.90080851 14.0508626,6.85106383 13.9282936,6.85106383 L8.53669606,6.85106383 L8.53669606,3.12765957 C8.53669606,2.88125957 8.73822199,2.68085106 8.98599585,2.68085106 L13.4789938,2.68085106 C13.7271271,2.68085106 13.9282936,2.48085957 13.9282936,2.23404255 L13.9282936,0.446808511 C13.9282936,0.199991489 13.7271271,0 13.4789938,0 L8.98599585,0 C7.25175856,0 5.8408973,1.40309787 5.8408973,3.12765957 L5.8408973,6.85106383 L0.449299793,6.85106383 C0.326730809,6.85106383 0.20943361,6.90086809 0.124665716,6.98891915 C0.0398978216,7.07702979 -0.00497225104,7.1957617 0.000419346473,7.31753191 L0.634291494,21.6057532 C0.645254409,21.8523319 0.856125778,22.0433277 1.10294113,22.0324851 C1.3508348,22.021583 1.54295539,21.8128936 1.53199248,21.5663745 L0.918848029,7.74468085 L13.4586854,7.74468085 L12.599744,27.106383 L1.77778942,27.106383 L1.61124896,23.3521191 C1.60034595,23.1055404 1.39103216,22.9156766 1.14259933,22.9253872 C0.894705654,22.9362894 0.702585062,23.1449787 0.713547977,23.3914383 L0.899078838,27.5728511 C0.909682313,27.8117447 1.10749404,28 1.34795928,28 L13.0297539,28 C13.2702191,28 13.4680309,27.8117447 13.4786343,27.5728511 L14.3772339,7.31753191 C14.3825656,7.1957617 14.3376955,7.07708936 14.2529276,6.98891915 L14.2529276,6.98891915 Z M6.73949689,3.12765957 C6.73949689,1.89577872 7.74724637,0.893617021 8.98599585,0.893617021 L13.029694,0.893617021 L13.029694,1.78723404 L8.98599585,1.78723404 C8.24273418,1.78723404 7.63809647,2.38857872 7.63809647,3.12765957 L7.63809647,6.85106383 L6.73949689,6.85106383 L6.73949689,3.12765957 Z" id="Shape"></path>
                    <ellipse id="Oval" cx="9.86722251" cy="18.1702128" rx="0.449299793" ry="0.446808511"></ellipse>
                    <ellipse id="Oval" cx="4.6028667" cy="22.3404255" rx="0.449299793" ry="0.446808511"></ellipse>
                    <path d="M6.2901971,8.63829787 C6.0420638,8.63829787 5.8408973,8.83828936 5.8408973,9.08510638 L5.8408973,10.850417 C5.80459388,10.8751404 5.76924896,10.8996851 5.73504227,10.9235149 C5.45545799,11.1185617 5.25351271,11.2595149 4.79768309,11.2595149 C4.34185348,11.2595149 4.13984829,11.1186213 3.86032391,10.9235149 C3.54227956,10.7016 3.14641649,10.4254723 2.40680913,10.4254723 C2.28424015,10.4254723 2.16694295,10.4752766 2.08217505,10.5633277 C1.99740716,10.6514383 1.95253709,10.7701702 1.95792868,10.8919404 L2.61869891,25.785617 C2.62930239,26.0245106 2.82711411,26.212766 3.06757936,26.212766 L11.310014,26.212766 C11.5504793,26.212766 11.748291,26.0245106 11.7588945,25.785617 L12.4196647,10.892 C12.4250563,10.7702298 12.3801862,10.6515574 12.2954183,10.5633872 C12.2106504,10.4752766 12.0933532,10.4255319 11.9707842,10.4255319 C11.231117,10.4255319 10.8352539,10.7016596 10.5172095,10.9235149 C10.2376253,11.1185617 10.0355602,11.2595149 9.57967064,11.2595149 C9.12378112,11.2595149 8.92177593,11.1186213 8.64213174,10.9235149 C8.60810477,10.8997447 8.57287967,10.8753191 8.53675596,10.8507745 L8.53675596,9.08510638 C8.53675596,8.83828936 8.33558947,8.63829787 8.08745617,8.63829787 C7.83932287,8.63829787 7.63815638,8.83828936 7.63815638,9.08510638 L7.63815638,10.4642553 C7.50342635,10.4400085 7.35509751,10.4254723 7.18855705,10.4254723 C7.02225622,10.4254723 6.87410711,10.4400085 6.73955679,10.4641957 L6.73955679,9.08510638 C6.73949689,8.83828936 6.53833039,8.63829787 6.2901971,8.63829787 L6.2901971,8.63829787 Z M2.87947251,11.3900426 C3.05020643,11.4499745 3.18451712,11.5436851 3.34416831,11.6550298 C3.66221266,11.8769447 4.05807573,12.1530723 4.79768309,12.1530723 C5.25668776,12.1530723 5.58311904,12.0466723 5.8408973,11.9129277 L5.8408973,25.3191489 L3.4974694,25.3191489 L2.87947251,11.3900426 Z M9.57961074,12.1531319 C10.319278,12.1531319 10.7151411,11.8770043 11.0332453,11.6551489 C11.1928965,11.5437447 11.3272671,11.450034 11.4980609,11.3901021 L10.880124,25.3191489 L8.53669606,25.3191489 L8.53669606,11.913166 C8.79441442,12.0467915 9.12078579,12.1531319 9.57961074,12.1531319 Z M7.18849715,11.3190894 C7.37259025,11.3190894 7.51498833,11.342383 7.63809647,11.3825957 L7.63809647,25.3191489 L6.73949689,25.3191489 L6.73949689,11.3824766 C6.86248522,11.3423234 7.00470358,11.3190894 7.18849715,11.3190894 Z" id="Shape"></path>
                </g>
            </g>
        </g>
    </g>
</svg>